<?xml version="1.0" encoding="UTF-8"?>
<svg version="1.1" xmlns="http://www.w3.org/2000/svg" width="900" height="900">
<path d="M0 0 C297 0 594 0 900 0 C900 297 900 594 900 900 C603 900 306 900 0 900 C0 603 0 306 0 0 Z " fill="#F0F4F5" transform="translate(0,0)"/>
<path d="M0 0 C53.04646372 -0.04578337 106.09292544 -0.08102223 159.13940503 -0.10213066 C165.40283255 -0.10463206 171.66626003 -0.1072207 177.9296875 -0.10986328 C179.17661675 -0.1103879 180.423546 -0.11091252 181.70826098 -0.11145304 C201.89512237 -0.12015431 222.08197236 -0.13592276 242.26882699 -0.15430559 C262.98427155 -0.17301237 283.69971014 -0.18411837 304.4151628 -0.18817699 C317.19642147 -0.19092043 329.97764793 -0.1995837 342.75889668 -0.21583293 C351.5249201 -0.2264094 360.29092687 -0.22959912 369.0569562 -0.22700275 C374.11353026 -0.22572251 379.17004805 -0.22767742 384.22661209 -0.23841095 C388.86072884 -0.24817571 393.49475169 -0.24861401 398.12887284 -0.24179779 C399.80067879 -0.2409559 401.47249071 -0.24346552 403.14428499 -0.24976636 C412.20249694 -0.28190623 421.14628011 -0.20586049 430 2 C430.33 2.33 430.66 2.66 431 3 C433.20092753 3.47335017 435.41142854 3.90232475 437.625 4.3125 C447.86908277 6.29088076 458.21088094 8.36563074 467.66015625 12.91796875 C472.65225346 15.22650118 477.85589431 17.06002815 483 19 C483 19.66 483 20.32 483 21 C483.5671875 21.12246094 484.134375 21.24492187 484.71875 21.37109375 C499.40671101 25.42034328 511.96672076 36.96456255 523 47 C523.53157715 47.47953125 524.0631543 47.9590625 524.61083984 48.453125 C546.78002774 68.69667318 560.34479508 97.60392072 565 127 C565.1800099 128.08261832 565.3600198 129.16523664 565.54548454 130.28066158 C567.61979729 144.90651222 567.27142867 159.64278219 567.23213124 174.37956011 C567.22340779 178.49041044 567.22642312 182.60125543 567.22793579 186.71211243 C567.22897908 193.81583742 567.22276107 200.91952537 567.21146011 208.02324104 C567.19513203 218.29372533 567.18998967 228.5641919 567.18748413 238.83468776 C567.18311843 255.50218803 567.16984002 272.16966861 567.15087891 288.8371582 C567.13249087 305.01782127 567.11834871 321.19847897 567.10986328 337.37915039 C567.10907511 338.87789671 567.10907511 338.87789671 567.10827102 340.40692074 C567.10566074 345.41996786 567.10313337 350.43301502 567.10064721 355.44606221 C567.07994979 396.96405516 567.0447551 438.48202645 567 480 C564.13283613 478.59979187 561.6177791 477.10522431 559.0625 475.1875 C558.41410156 474.70667969 557.76570312 474.22585938 557.09765625 473.73046875 C555 472 555 472 552.609375 469.58203125 C549.94497487 466.94555148 547.18534368 464.74742068 544.1875 462.5 C539.11058573 458.65367525 534.12314724 454.71347283 529.1875 450.6875 C528.18904053 449.87321533 528.18904053 449.87321533 527.17041016 449.04248047 C525.80623728 447.92871651 524.44247097 446.81445439 523.07910156 445.69970703 C519.57728552 442.83690252 516.07083741 439.97980739 512.5625 437.125 C511.54905518 436.29995972 511.54905518 436.29995972 510.51513672 435.45825195 C507.14551676 432.72101044 503.75846504 430.0160681 500.3125 427.375 C496.74972564 424.63905818 493.34304889 421.7395749 489.9375 418.8125 C484.34334602 414.01203225 478.52033034 409.58558757 472.59594727 405.20263672 C468.59799332 402.23361431 464.78686664 399.17288664 461.09765625 395.82421875 C458.25688319 393.3537513 455.28452403 391.05877234 452.3125 388.75 C447.59372441 385.08145317 442.97405856 381.32903063 438.4375 377.4375 C433.79815657 373.46341564 429.050914 369.68561367 424.17797852 365.99780273 C418.53901367 361.70391208 413.09355594 357.17989582 407.64746094 352.64526367 C406.9568457 352.07138916 406.26623047 351.49751465 405.5546875 350.90625 C404.63405518 350.13764648 404.63405518 350.13764648 403.69482422 349.35351562 C402.19206314 348.15338491 400.60017887 347.06678591 399 346 C399 345.34 399 344.68 399 344 C398.29230469 343.76539063 397.58460938 343.53078125 396.85546875 343.2890625 C393.47016987 341.7608154 391.12406913 339.79993145 388.3125 337.375 C387.24939366 336.46793394 386.18558129 335.56169476 385.12109375 334.65625 C384.59499512 334.20636719 384.06889648 333.75648438 383.52685547 333.29296875 C379.76030239 330.10338367 375.86526958 327.06837147 372 324 C365.94919423 319.18214951 359.9342804 314.3223038 353.9375 309.4375 C349.03875816 305.44796646 344.11371127 301.50516282 339.109375 297.6484375 C335.22700116 294.61443424 331.43799905 291.46535983 327.63085938 288.33789062 C318.80549737 281.09792299 309.93817879 273.91808457 300.94482422 266.88769531 C295.56217784 262.67357871 290.27441371 258.34866853 285 254 C276.9670511 247.40393069 268.92057907 240.82718367 260.71875 234.44140625 C254.20876691 229.3677701 247.81276448 224.20131692 241.53710938 218.84008789 C237.96002927 215.79094375 234.31542894 212.86935385 230.58203125 210.015625 C226.27627008 206.6543954 222.06404257 203.17650116 217.84643555 199.70556641 C214.64002157 197.08174128 211.42490329 194.5716248 208.0078125 192.2265625 C207.01523437 191.49179687 206.02265625 190.75703125 205 190 C205 189.34 205 188.68 205 188 C204.47664062 187.77570313 203.95328125 187.55140625 203.4140625 187.3203125 C200.12458323 185.52121219 197.2914961 183.21087908 194.375 180.875 C193.74964355 180.3785498 193.12428711 179.88209961 192.47998047 179.37060547 C190.65067362 177.91702274 188.82511333 176.45884201 187 175 C186.14921875 174.32453125 185.2984375 173.6490625 184.421875 172.953125 C178.54184967 168.27310484 172.71815606 163.52368771 166.88769531 158.78222656 C160.48502305 153.57721997 154.06977854 148.39044958 147.5625 143.31640625 C141.22424693 138.37044374 134.95081845 133.41487518 129 128 C132.80559333 133.25976314 136.86314152 138.26251501 141.04663086 143.22583008 C144.11547147 146.88761189 147.05137051 150.63060691 149.9375 154.4375 C153.81274374 159.54125567 157.8648014 164.45862468 162.02832031 169.32910156 C166.1313466 174.1320044 170.0806027 179.04620506 174 184 C175.33237544 185.66743253 176.66571902 187.3340919 178 189 C179.94330231 191.42818819 181.88593345 193.85686724 183.82421875 196.2890625 C191.74140721 206.21459436 199.76287903 216.05669069 207.8125 225.875 C212.58052252 231.69581581 217.27198745 237.57639859 221.9609375 243.4609375 C226.19560737 248.76682821 230.47605575 254.03245153 234.78125 259.28125 C236.87063426 261.84148142 238.93964482 264.41638002 241 267 C244.4465097 271.31998662 247.93830185 275.60084836 251.44140625 279.875 C265.9619946 297.59977104 265.9619946 297.59977104 272.3515625 305.890625 C274.9870239 309.26301636 277.71251189 312.56052295 280.4296875 315.8671875 C283.94009808 320.13989023 287.4220656 324.43570456 290.90722656 328.72900391 C293.76054083 332.24377584 296.61585012 335.75687041 299.4765625 339.265625 C304.49770237 345.42754266 309.49914688 351.59431985 314.3515625 357.890625 C317.37403782 361.75824744 320.51121363 365.53265617 323.62695312 369.32519531 C326.38475004 372.68907988 329.12990875 376.06324575 331.875 379.4375 C332.43461426 380.12400635 332.99422852 380.8105127 333.57080078 381.51782227 C341 390.65269347 341 390.65269347 341 393 C341.99 393.33 342.98 393.66 344 394 C345.39233398 395.58398438 345.39233398 395.58398438 346.80859375 397.59375 C349.7611198 401.68200289 352.86766719 405.59955691 356.0625 409.5 C357.2031544 410.89841352 358.3437785 412.29685176 359.484375 413.6953125 C360.06380859 414.40461914 360.64324219 415.11392578 361.24023438 415.84472656 C379.02416258 437.62559757 379.02416258 437.62559757 386.578125 447.296875 C391.83872023 454.02932256 397.17959743 460.66510983 402.671875 467.2109375 C407.07198361 472.48220855 411.33641746 477.85988427 415.5546875 483.27734375 C420.60594674 489.75707738 425.74369052 496.1306626 431.07861328 502.37939453 C435.16285126 507.1680645 439.09655732 512.06377144 443 517 C448.36152895 523.73657624 453.77861172 530.42664457 459.21264648 537.10473633 C462.85901395 541.58828811 466.4829137 546.08853883 470.078125 550.61328125 C471.52987501 552.41616591 473.00229229 554.20243556 474.484375 555.98046875 C475.31453125 556.97691406 476.1446875 557.97335937 477 559 C478.1446875 560.36125 478.1446875 560.36125 479.3125 561.75 C481 564 481 564 481 566 C438.66342103 566.04584937 396.32684495 566.08105565 353.99024604 566.10213066 C348.98389446 566.10463186 343.97754292 566.10722052 338.97119141 566.10986328 C337.97458167 566.1103879 336.97797193 566.11091252 335.95116189 566.11145304 C319.84684838 566.12013868 303.74254924 566.13589844 287.63824424 566.15430559 C271.09476702 566.17305601 254.55129729 566.18412756 238.00780988 566.18817699 C227.81230774 566.19091141 217.61684626 566.19952532 207.42135665 566.21583293 C200.41528248 566.22646338 193.40922912 566.22958702 186.40314749 566.22700275 C182.37036133 566.22573083 178.33764587 566.22758078 174.30487251 566.23841095 C152.1313306 566.29483369 130.87279172 566.17756119 109.5625 559.5 C108.20296271 559.09082046 106.84293472 558.68326779 105.48242188 558.27734375 C100.24274268 556.6992357 95.05758022 555.10363192 90 553 C90 552.34 90 551.68 90 551 C89.19949219 550.77957031 89.19949219 550.77957031 88.3828125 550.5546875 C70.21556168 545.08565351 53.70840164 530.54680204 42 516 C40.82824219 514.54980469 40.82824219 514.54980469 39.6328125 513.0703125 C33.80118885 505.73321211 28.69453218 498.1247749 24 490 C23.39285156 488.96230469 22.78570312 487.92460938 22.16015625 486.85546875 C17.4702584 478.53269598 14.09589101 470.00286845 11 461 C10.77570313 460.36755371 10.55140625 459.73510742 10.3203125 459.08349609 C6.49737822 448.23592008 4.36542812 437.23734297 2.51489258 425.90087891 C2.23058023 424.29907744 1.92313943 422.69897401 1.52067292 421.12270558 C-0.46024362 412.83947771 -0.2726474 404.57343902 -0.24050903 396.11837769 C-0.24138211 394.40620393 -0.24313496 392.69403044 -0.24568737 390.98185837 C-0.25014491 386.29556737 -0.24217916 381.60936833 -0.23213124 376.92308903 C-0.22347604 371.86254958 -0.22641837 366.80201511 -0.22793579 361.74147034 C-0.22898333 352.97989554 -0.22272039 344.21835059 -0.21146011 335.45678329 C-0.19519036 322.78910746 -0.18999559 310.12144603 -0.18748413 297.45376088 C-0.18310935 276.90015533 -0.16980611 256.34656567 -0.15087891 235.79296875 C-0.13251451 215.82975341 -0.11836074 195.86654239 -0.10986328 175.90332031 C-0.10933783 174.67231837 -0.10881239 173.44131644 -0.10827102 172.17301141 C-0.1056609 165.99729635 -0.10313349 159.82158126 -0.10064721 153.64586616 C-0.07992146 102.43056645 -0.04470181 51.215284 0 0 Z " fill="#66B462" transform="translate(174,155)"/>
<path d="M0 0 C3.95579674 1.82849038 6.66224772 4.40584374 9.68359375 7.48828125 C10.22097672 8.02849411 10.75835968 8.56870697 11.31202698 9.12528992 C13.02528546 10.84970706 14.73146776 12.58093629 16.4375 14.3125 C17.58091562 15.46595552 18.72479125 16.61895523 19.86914062 17.77148438 C21.98260721 19.90123713 24.09331074 22.03364835 26.20092773 24.16918945 C27.12462158 25.10335693 28.04831543 26.03752441 29 27 C29.89726807 27.91160889 30.79453613 28.82321777 31.71899414 29.76245117 C33.91042465 32.02020095 33.91042465 32.02020095 36.3125 33.6875 C36.869375 34.120625 37.42625 34.55375 38 35 C38 35.66 38 36.32 38 37 C38.99 37.33 39.98 37.66 41 38 C42.61328125 39.671875 42.61328125 39.671875 44.3125 41.75 C46.46210053 44.29166604 48.42568271 46.35473559 51 48.5 C54.1778795 51.14823291 56.6756287 54.02037771 59.34765625 57.16015625 C61.03470017 59.13952533 61.03470017 59.13952533 63.5 61 C66.50237155 63.40189724 68.82220087 66.14770401 71.3203125 69.05859375 C74.75602512 73.02963834 78.55163123 76.49082165 82.5 79.9375 C86.07386808 83.08534407 89.0310593 86.28882413 92 90 C94.85893487 93.01347189 97.86711484 95.77856317 101 98.5 C104.1374103 101.22740781 107.19329268 103.93016387 110 107 C110 107.66 110 108.32 110 109 C110.66 109 111.32 109 112 109 C113.515625 110.57421875 113.515625 110.57421875 115.25 112.6875 C117.76818712 115.66165515 120.2947789 118.05835627 123.3515625 120.484375 C126.4494618 123.33268052 128.96012084 126.69978688 131.58203125 129.98046875 C133.98873065 132.98592697 136.45468418 135.93225912 138.9375 138.875 C142.37758009 142.98929332 145.69523015 147.16636522 148.9375 151.4375 C152.81310156 156.54099979 156.86478311 161.45860327 161.02832031 166.32910156 C165.1313466 171.1320044 169.0806027 176.04620506 173 181 C174.33237544 182.66743253 175.66571902 184.3340919 177 186 C178.94330231 188.42818819 180.88593345 190.85686724 182.82421875 193.2890625 C190.74140721 203.21459436 198.76287903 213.05669069 206.8125 222.875 C211.58052252 228.69581581 216.27198745 234.57639859 220.9609375 240.4609375 C225.19560737 245.76682821 229.47605575 251.03245153 233.78125 256.28125 C235.87063426 258.84148142 237.93964482 261.41638002 240 264 C243.4465097 268.31998662 246.93830185 272.60084836 250.44140625 276.875 C264.9619946 294.59977104 264.9619946 294.59977104 271.3515625 302.890625 C273.9870239 306.26301636 276.71251189 309.56052295 279.4296875 312.8671875 C282.94009808 317.13989023 286.4220656 321.43570456 289.90722656 325.72900391 C292.76054083 329.24377584 295.61585012 332.75687041 298.4765625 336.265625 C303.49770237 342.42754266 308.49914688 348.59431985 313.3515625 354.890625 C316.37403782 358.75824744 319.51121363 362.53265617 322.62695312 366.32519531 C325.38475004 369.68907988 328.12990875 373.06324575 330.875 376.4375 C331.43461426 377.12400635 331.99422852 377.8105127 332.57080078 378.51782227 C340 387.65269347 340 387.65269347 340 390 C340.99 390.33 341.98 390.66 343 391 C344.39233398 392.58398438 344.39233398 392.58398438 345.80859375 394.59375 C348.7611198 398.68200289 351.86766719 402.59955691 355.0625 406.5 C356.2031544 407.89841352 357.3437785 409.29685176 358.484375 410.6953125 C359.06380859 411.40461914 359.64324219 412.11392578 360.24023438 412.84472656 C378.02416258 434.62559757 378.02416258 434.62559757 385.578125 444.296875 C390.83872023 451.02932256 396.17959743 457.66510983 401.671875 464.2109375 C406.07198361 469.48220855 410.33641746 474.85988427 414.5546875 480.27734375 C419.60594674 486.75707738 424.74369052 493.1306626 430.07861328 499.37939453 C434.16285126 504.1680645 438.09655732 509.06377144 442 514 C447.36152895 520.73657624 452.77861172 527.42664457 458.21264648 534.10473633 C461.85901395 538.58828811 465.4829137 543.08853883 469.078125 547.61328125 C470.52987501 549.41616591 472.00229229 551.20243556 473.484375 552.98046875 C474.31453125 553.97691406 475.1446875 554.97335937 476 556 C477.1446875 557.36125 477.1446875 557.36125 478.3125 558.75 C480 561 480 561 480 563 C437.66342103 563.04584937 395.32684495 563.08105565 352.99024604 563.10213066 C347.98389446 563.10463186 342.97754292 563.10722052 337.97119141 563.10986328 C336.97458167 563.1103879 335.97797193 563.11091252 334.95116189 563.11145304 C318.84684838 563.12013868 302.74254924 563.13589844 286.63824424 563.15430559 C270.09476702 563.17305601 253.55129729 563.18412756 237.00780988 563.18817699 C226.81230774 563.19091141 216.61684626 563.19952532 206.42135665 563.21583293 C199.41528248 563.22646338 192.40922912 563.22958702 185.40314749 563.22700275 C181.37036133 563.22573083 177.33764587 563.22758078 173.30487251 563.23841095 C151.1313306 563.29483369 129.87279172 563.17756119 108.5625 556.5 C107.20296271 556.09082046 105.84293472 555.68326779 104.48242188 555.27734375 C99.24274268 553.6992357 94.05758022 552.10363192 89 550 C89 549.34 89 548.68 89 548 C88.19949219 547.77957031 88.19949219 547.77957031 87.3828125 547.5546875 C69.21556168 542.08565351 52.70840164 527.54680204 41 513 C39.82824219 511.54980469 39.82824219 511.54980469 38.6328125 510.0703125 C32.80118885 502.73321211 27.69453218 495.1247749 23 487 C22.39285156 485.96230469 21.78570312 484.92460938 21.16015625 483.85546875 C16.4702584 475.53269598 13.09589101 467.00286845 10 458 C9.77570313 457.36755371 9.55140625 456.73510742 9.3203125 456.08349609 C5.39476532 444.94475597 3.27901851 433.63643208 1.40136719 421.99267578 C1.07792084 419.93767576 1.07792084 419.93767576 0 418 C-0.09569031 415.74360346 -0.1237236 413.484268 -0.12304783 411.22584343 C-0.12420167 410.51779554 -0.12535552 409.80974765 -0.12654433 409.08024377 C-0.12921246 406.68367095 -0.12468721 404.28716396 -0.12025452 401.89059448 C-0.12069018 400.16470166 -0.12156499 398.4388089 -0.12284368 396.71291649 C-0.12508964 391.95156896 -0.12106598 387.19024374 -0.11606562 382.42889905 C-0.11176275 377.30141527 -0.11320743 372.17393283 -0.1139679 367.04644775 C-0.11449323 358.15651016 -0.1113454 349.26657989 -0.10573006 340.37664413 C-0.0976164 327.52315615 -0.09499997 314.66967171 -0.09374207 301.81618144 C-0.09155134 280.96420358 -0.08489068 260.11222964 -0.07543945 239.26025391 C-0.06626588 218.99983744 -0.05918478 198.73942203 -0.05493164 178.47900391 C-0.05466892 177.2309652 -0.05440619 175.9829265 -0.05413551 174.69706844 C-0.05283051 168.43626793 -0.05156679 162.17546741 -0.05032361 155.91466689 C-0.03995034 103.94310856 -0.02233145 51.97155447 0 0 Z " fill="#377B2B" transform="translate(175,158)"/>
<path d="M0 0 C3.13384836 0.32326772 6.21991403 0.79215271 9.32935846 1.29940259 C19.82597309 2.72924247 30.11180321 3.468995 40.70139825 3.49395216 C41.75051664 3.49744591 41.75051664 3.49744591 42.82082935 3.50101025 C47.29361648 3.51194437 51.76613255 3.49951794 56.23888326 3.48138547 C60.34273981 3.46818246 64.44658644 3.47283131 68.55045831 3.47509229 C75.62674354 3.47665003 82.7029445 3.4674001 89.77920854 3.45037878 C100.00973533 3.42578645 110.24022221 3.41816307 120.47077534 3.4144148 C137.07727976 3.40788166 153.68373946 3.38800664 170.29021966 3.35950696 C186.40252211 3.33188449 202.51481232 3.31069123 218.62713373 3.29798353 C219.62367071 3.29719536 220.62020769 3.29640719 221.64694276 3.29559513 C226.64728349 3.29167945 231.64762431 3.28788846 236.64796519 3.28415942 C277.99823017 3.25316144 319.34844597 3.20041233 360.69866693 3.13318861 C359.92522943 6.92225111 359.92522943 6.92225111 357.88616693 8.82068861 C355.71576032 10.12293257 354.16934699 10.68397405 351.69866693 11.13318861 C350.79116693 11.31881361 349.88366693 11.50443861 348.94866693 11.69568861 C347.83491693 11.91225111 347.83491693 11.91225111 346.69866693 12.13318861 C346.69866693 12.79318861 346.69866693 13.45318861 346.69866693 14.13318861 C346.07862787 14.46189954 345.45858881 14.79061048 344.81976068 15.12928236 C338.42984799 18.56141887 332.1886283 22.18833865 326.00311029 25.97278821 C322.31272156 28.21784467 318.5757119 30.21969726 314.69866693 32.13318861 C312.69167718 33.4559773 310.6927477 34.79101885 308.69866693 36.13318861 C290.92242384 47.13318861 290.92242384 47.13318861 287.69866693 47.13318861 C287.69866693 47.79318861 287.69866693 48.45318861 287.69866693 49.13318861 C285.78455136 50.11733293 283.86727023 51.09532209 281.94866693 52.07068861 C280.88132318 52.61596204 279.81397943 53.16123548 278.71429193 53.72303236 C275.69866693 55.13318861 275.69866693 55.13318861 273.37054193 55.63709486 C272.81882318 55.80080579 272.26710443 55.96451673 271.69866693 56.13318861 C271.36866693 57.12318861 271.03866693 58.11318861 270.69866693 59.13318861 C268.29241693 60.78162611 268.29241693 60.78162611 265.19866693 62.50818861 C264.10812006 63.12307142 263.01757318 63.73795423 261.89397943 64.37146986 C260.83952631 64.95283704 259.78507318 65.53420423 258.69866693 66.13318861 C257.89171381 66.58049329 257.08476068 67.02779798 256.25335443 67.48865736 C254.81151156 68.28709723 253.36881513 69.08399787 251.92522943 69.87928236 C246.89744944 72.71071635 241.94111261 75.68969812 237.08929193 78.81287611 C234.69866693 80.13318861 234.69866693 80.13318861 231.69866693 80.13318861 C231.69866693 80.79318861 231.69866693 81.45318861 231.69866693 82.13318861 C230.75765131 82.66428236 229.81663568 83.19537611 228.84710443 83.74256361 C227.58922521 84.45598764 226.33141646 85.16953595 225.07366693 85.88318861 C224.45620599 86.23123548 223.83874506 86.57928236 223.20257318 86.93787611 C220.31172763 88.58109358 217.51246525 90.25822735 214.74944818 92.11365736 C210.43350688 94.97068892 205.90283485 97.39685897 201.35687006 99.86561048 C200.67173334 100.24395032 199.98659662 100.62229017 199.28069818 101.01209486 C198.66428461 101.3479762 198.04787103 101.68385755 197.41277826 102.02991712 C195.57737156 103.21125922 194.2311192 104.58835448 192.69866693 106.13318861 C190.39397943 107.16053236 190.39397943 107.16053236 187.82366693 108.07068861 C183.76722748 109.61738854 181.05058047 111.35355299 177.69866693 114.13318861 C176.00485065 115.09666951 174.294221 116.03081007 172.57366693 116.94568861 C167.70637063 119.53592538 163.10164252 122.39734814 158.47991693 125.39881361 C154.75690168 127.72046918 150.90660025 129.75815334 147.01116693 131.77381361 C144.71060243 132.99058536 144.71060243 132.99058536 143.23382318 134.62928236 C141.12283836 136.69729547 138.80192827 137.6840571 136.13616693 138.94568861 C129.52058812 142.17338626 122.83419242 145.46799194 117.19866693 150.25818861 C114.73028349 152.10947619 112.75700561 152.94523771 109.88616693 154.00818861 C105.55782404 155.64248917 102.40763368 157.69233767 98.81585443 160.56287611 C94.74408194 163.58289924 90.17969475 165.78598356 85.69866693 168.13318861 C78.07281663 172.11648768 78.07281663 172.11648768 70.88616693 176.82068861 C67.91643932 178.97519687 65.00158708 180.56036949 61.69866693 182.13318861 C61.36866693 182.46318861 61.03866693 182.79318861 60.69866693 183.13318861 C58.33319174 183.23082832 55.99695758 183.26316148 53.63102472 183.25344312 C52.88288021 183.25429755 52.1347357 183.25515197 51.36392015 183.25603229 C48.83802746 183.25768933 46.31220007 183.25216208 43.78631341 183.246714 C41.98323319 183.24643215 40.18015285 183.24658981 38.37707269 183.2471565 C33.46612154 183.24744456 28.55519459 183.24154644 23.64424908 183.23458254 C18.51794481 183.22835044 13.39164005 183.22774532 8.26533258 183.22655714 C-1.44923933 183.22344339 -11.16380004 183.21522943 -20.87836701 183.20520765 C-31.93501024 183.19404783 -42.991654 183.18853639 -54.04830146 183.18351221 C-76.79931821 183.17304685 -99.55032502 183.15544659 -122.30133307 183.13318861 C-122.41854728 169.25909162 -122.50617314 155.38507229 -122.56039393 141.51058042 C-122.58642467 135.06722495 -122.62170419 128.62420347 -122.67853034 122.18104017 C-122.73308167 115.95645106 -122.76280261 109.73218207 -122.77571929 103.50737226 C-122.78491765 101.13923328 -122.80287953 98.77111069 -122.82998335 96.40310895 C-123.08854256 72.86521395 -123.08854256 72.86521395 -117.30133307 63.13318861 C-116.84563437 62.26023145 -116.38993567 61.3872743 -115.92042792 60.4878639 C-109.52569197 48.38466552 -96.5945846 34.56427245 -83.30133307 30.13318861 C-83.30133307 29.47318861 -83.30133307 28.81318861 -83.30133307 28.13318861 C-82.77926276 27.90244642 -82.25719244 27.67170423 -81.71930182 27.43396986 C-80.61521979 26.94477064 -80.61521979 26.94477064 -79.48883307 26.44568861 C-78.65996588 26.07959486 -77.83109869 25.71350111 -76.97711432 25.33631361 C-75.23647552 24.55366141 -73.50402069 23.75245649 -71.78180182 22.93006361 C-53.29425959 14.17134795 -32.16066004 8.50421058 -11.83331549 6.3338722 C-9.52197812 6.07809005 -9.52197812 6.07809005 -6.30133307 5.13318861 C-5.80935085 4.26488007 -5.31736863 3.39657154 -4.81047785 2.50195062 C-2.30133307 0.13318861 -2.30133307 0.13318861 0 0 Z " fill="#C8D1D5" transform="translate(295.30133306980133,716.8668113946915)"/>
<path d="M0 0 C0 3 0 3 -2 5.1875 C-2.66 5.785625 -3.32 6.38375 -4 7 C-4.99 6.67 -5.98 6.34 -7 6 C-6.67 5.34 -6.34 4.68 -6 4 C-7.01802628 3.99739563 -7.01802628 3.99739563 -8.05661875 3.99473864 C-48.27283984 3.89173082 -88.48904432 3.78362273 -128.70523373 3.66888306 C-133.53306261 3.65511333 -138.36089162 3.64138626 -143.1887207 3.62768555 C-144.63043338 3.62359309 -144.63043338 3.62359309 -146.10127156 3.61941796 C-161.66793171 3.57533206 -177.23459906 3.53470214 -192.8012718 3.49534739 C-208.77178189 3.45489483 -224.74227861 3.41073305 -240.71276897 3.36312145 C-250.56894606 3.33385509 -260.42512218 3.30748868 -270.28131669 3.28482103 C-277.03827701 3.26900407 -283.79522098 3.24958717 -290.55216313 3.22733159 C-294.45166755 3.2145942 -298.35115947 3.20345154 -302.25067902 3.19658089 C-305.82176707 3.19025387 -309.39281189 3.17939929 -312.96387612 3.1649667 C-314.86547164 3.15845263 -316.7670818 3.15676354 -318.66868788 3.15525442 C-324.2155349 3.12851424 -329.5380365 2.99761661 -335 2 C-335 1.67 -335 1.34 -335 1 C-224.45 0.67 -113.9 0.34 0 0 Z " fill="#BDD6C2" transform="translate(655,720)"/>
<path d="M0 0 C0.99 0.66 1.98 1.32 3 2 C3 2.66 3 3.32 3 4 C-39.47275745 4.02289923 -81.94551419 4.04051494 -124.41827659 4.05106533 C-129.43493831 4.05231601 -134.45160002 4.05361033 -139.46826172 4.05493164 C-140.46696994 4.05519395 -141.46567817 4.05545626 -142.49465027 4.05572652 C-158.65609478 4.06007536 -174.81753573 4.0679586 -190.97897813 4.0771528 C-207.56761789 4.08651117 -224.15625579 4.09206024 -240.74489808 4.09408849 C-250.97726148 4.09545918 -261.20961479 4.0997852 -271.44197509 4.10791647 C-278.46293902 4.11321086 -285.48389775 4.11479817 -292.50486353 4.11350138 C-296.55283969 4.11286221 -300.60079827 4.11382775 -304.64877129 4.11920547 C-308.3613569 4.1241014 -312.07391324 4.12429832 -315.78650025 4.12089889 C-317.75201224 4.12028184 -319.71752393 4.12456799 -321.68303084 4.12908131 C-329.17171645 4.11656035 -336.5485732 3.75147222 -344 3 C-344 2.67 -344 2.34 -344 2 C-230.81 2 -117.62 2 -1 2 C-0.67 1.34 -0.34 0.68 0 0 Z " fill="#40713B" transform="translate(652,717)"/>
<path d="M0 0 C104.28 0 208.56 0 316 0 C314.35 1.32 312.7 2.64 311 4 C310.34 3.67 309.68 3.34 309 3 C309.33 2.67 309.66 2.34 310 2 C156.55 1.505 156.55 1.505 0 1 C0 0.67 0 0.34 0 0 Z " fill="#BBC2C7" transform="translate(335,723)"/>
<path d="M0 0 C5.22625378 3.78134832 10.20677518 7.80542405 15.13793945 11.96313477 C19.72889686 15.81609308 24.43488883 19.51144521 29.19189453 23.15698242 C32.72883137 25.89530587 35.90036265 28.77290092 39 32 C37.02 32 35.04 32 33 32 C33 31.01 33 30.02 33 29 C32.34 29 31.68 29 31 29 C30.01 30.98 29.02 32.96 28 35 C23.88633504 31.0539288 20.30956758 26.82234447 16.75 22.375 C15.60447285 20.95157645 14.45863789 19.52840057 13.3125 18.10546875 C12.75304687 17.4098584 12.19359375 16.71424805 11.6171875 15.99755859 C10.15440888 14.19072667 8.67694809 12.39814372 7.1875 10.61328125 C6.383125 9.64777344 5.57875 8.68226563 4.75 7.6875 C4.04359375 6.84574219 3.3371875 6.00398438 2.609375 5.13671875 C1 3 1 3 0 0 Z " fill="#ECF6EC" transform="translate(302,282)"/>
<path d="M0 0 C8.81790389 6.38001282 17.39539429 13.20076088 25 21 C24.21625 21.12375 23.4325 21.2475 22.625 21.375 C19.85942178 21.79117993 19.85942178 21.79117993 18 24 C16.93072266 22.62328125 16.93072266 22.62328125 15.83984375 21.21875 C14.8729831 19.97870855 13.90549352 18.73915732 12.9375 17.5 C12.43887451 16.8615918 11.94024902 16.22318359 11.42651367 15.56542969 C8.1436219 11.38749285 4.76116155 7.34926069 1.14453125 3.453125 C0 2 0 2 0 0 Z " fill="#EFF9EE" transform="translate(302,282)"/>
<path d="M0 0 C3.09366938 0.27261922 6.1164609 0.70978537 9.1796875 1.22094727 C10.241875 1.36983398 11.3040625 1.5187207 12.3984375 1.67211914 C20.24070914 2.84446891 20.24070914 2.84446891 22.5546875 5.15844727 C18.17996187 5.49544723 13.80486737 5.82740094 9.4296875 6.15844727 C8.1921875 6.25383789 6.9546875 6.34922852 5.6796875 6.44750977 C4.48085938 6.53774414 3.28203125 6.62797852 2.046875 6.72094727 C0.39727783 6.84663086 0.39727783 6.84663086 -1.28564453 6.97485352 C-4.34731528 7.1527531 -7.37930557 7.19076354 -10.4453125 7.15844727 C-9.5790625 6.81813477 -9.5790625 6.81813477 -8.6953125 6.47094727 C-6.21756874 5.28928862 -6.21756874 5.28928862 -5.03125 2.51000977 C-2.4453125 0.15844727 -2.4453125 0.15844727 0 0 Z " fill="#DCE8E7" transform="translate(295.4453125,716.841552734375)"/>
<path d="M0 0 C2.49361571 1.20381448 4.68143083 2.45428722 7 4 C7 4.66 7 5.32 7 6 C8.32 6.66 9.64 7.32 11 8 C10.34 8.66 9.68 9.32 9 10 C8.34 9.34 7.68 8.68 7 8 C4.89179203 8.3185177 4.89179203 8.3185177 3 9 C3 8.34 3 7.68 3 7 C2.01 7 1.02 7 0 7 C0 6.01 0 5.02 0 4 C-0.66 3.67 -1.32 3.34 -2 3 C-1 1 -1 1 0 0 Z " fill="#D8EAE1" transform="translate(722,621)"/>
<path d="M0 0 C1.98 0 3.96 0 6 0 C6 1.32 6 2.64 6 4 C6.66 4 7.32 4 8 4 C7 7 7 7 4.9375 8.1875 C4.298125 8.455625 3.65875 8.72375 3 9 C0.9375 6.75 0.9375 6.75 -1 4 C-0.75 1.6875 -0.75 1.6875 0 0 Z " fill="#F4F9F4" transform="translate(322,303)"/>
<path d="M0 0 C6.27 2.97 12.54 5.94 19 9 C18.34 9.66 17.68 10.32 17 11 C14.4375 10.75 14.4375 10.75 12 10 C11.67 9.34 11.34 8.68 11 8 C7.54670274 6.27335137 4.84169158 5.78047477 1 6 C0.67 4.02 0.34 2.04 0 0 Z " fill="#DAEAE4" transform="translate(245,697)"/>
<path d="M0 0 C5.23880078 0.55145271 9.97350697 1.42922093 15 3 C11.93753253 4.78409802 9.77920727 5.22880021 6.25 5.125 C5.45078125 5.10695313 4.6515625 5.08890625 3.828125 5.0703125 C3.22484375 5.04710937 2.6215625 5.02390625 2 5 C1.34 3.35 0.68 1.7 0 0 Z " fill="#C4DAC9" transform="translate(275,712)"/>
<path d="M0 0 C4.54075781 4.14010271 7.71842138 8.82390176 11 14 C8.625 13.6875 8.625 13.6875 6 13 C4 10 4 10 4 6 C2.68 6.33 1.36 6.66 0 7 C-1.125 2.25 -1.125 2.25 0 0 Z " fill="#CDE2D5" transform="translate(206,658)"/>
<path d="M0 0 C3.1141901 2.54797371 3.82194173 5.23021354 5 9 C5.99 10.485 5.99 10.485 7 12 C6.01 12 5.02 12 4 12 C2.17578125 10.03125 2.17578125 10.03125 0.3125 7.5 C-0.31011719 6.6646875 -0.93273437 5.829375 -1.57421875 4.96875 C-2.04472656 4.3190625 -2.51523437 3.669375 -3 3 C-2.01 2.67 -1.02 2.34 0 2 C0 1.34 0 0.68 0 0 Z " fill="#DFEEE3" transform="translate(441,449)"/>
<path d="M0 0 C0.99 0.33 1.98 0.66 3 1 C3 1.66 3 2.32 3 3 C4.45833358 4.62514468 4.45833358 4.62514468 6 6 C0.375 8.125 0.375 8.125 -3 7 C-1.125 1.125 -1.125 1.125 0 0 Z " fill="#F9FAFA" transform="translate(333,310)"/>
<path d="M0 0 C4.20626034 1.50223584 5.73900021 4.28550034 8 8 C5.69 8 3.38 8 1 8 C0.02391783 5.07175348 -0.08226668 3.04386724 0 0 Z " fill="#417F39" transform="translate(478,503)"/>
<path d="M0 0 C1.27310312 0.93441535 2.543388 1.87267111 3.8125 2.8125 C4.52019531 3.33457031 5.22789062 3.85664063 5.95703125 4.39453125 C9.79485224 7.41048618 9.79485224 7.41048618 11 9 C10.6875 11.1875 10.6875 11.1875 10 13 C8.32722165 11.21371169 6.66175557 9.4214925 5 7.625 C4.28457031 6.86316406 4.28457031 6.86316406 3.5546875 6.0859375 C0 2.2265625 0 2.2265625 0 0 Z " fill="#DCF6DB" transform="translate(302,282)"/>
<path d="M0 0 C4.2026393 2.63886654 7.56638098 5.36440339 11 9 C8.36 8.67 5.72 8.34 3 8 C3 7.01 3 6.02 3 5 C2.0206121 3.97980427 1.02104551 2.97850195 0 2 C0 1.34 0 0.68 0 0 Z " fill="#D9ECE1" transform="translate(711,612)"/>
<path d="M0 0 C2.99220268 1.36370299 5.29026529 2.94908083 7.75 5.125 C8.67039062 5.93324219 8.67039062 5.93324219 9.609375 6.7578125 C10.06828125 7.16773438 10.5271875 7.57765625 11 8 C10.34 8.66 9.68 9.32 9 10 C8.67 9.01 8.34 8.02 8 7 C5.36 6.67 2.72 6.34 0 6 C0 4.02 0 2.04 0 0 Z " fill="#DAEEE1" transform="translate(666,576)"/>
<path d="M0 0 C2.86724686 0.57344937 3.8614515 0.8614515 6 3 C6.66 3.33 7.32 3.66 8 4 C8 5.65 8 7.3 8 9 C8.66 9.33 9.32 9.66 10 10 C9.01 10 8.02 10 7 10 C5.17578125 8.06640625 5.17578125 8.06640625 3.3125 5.5625 C2.68988281 4.73878906 2.06726563 3.91507813 1.42578125 3.06640625 C0 1 0 1 0 0 Z " fill="#DAEBE0" transform="translate(535,571)"/>
<path d="M0 0 C3.375 0.6875 3.375 0.6875 7 2 C8.5 4.4375 8.5 4.4375 9 7 C8.67 7.99 8.34 8.98 8 10 C6.66370254 8.52351062 5.33103329 7.0437367 4 5.5625 C3.2575 4.73878906 2.515 3.91507813 1.75 3.06640625 C0 1 0 1 0 0 Z " fill="#D4E7DD" transform="translate(647,710)"/>
<path d="M0 0 C5.875 4.625 5.875 4.625 7 8 C4.66666667 8 2.33333333 8 0 8 C0.33 6.35 0.66 4.7 1 3 C0.34 2.67 -0.32 2.34 -1 2 C-0.67 1.34 -0.34 0.68 0 0 Z " fill="#CFE2D8" transform="translate(217,672)"/>
<path d="M0 0 C2.97 0.495 2.97 0.495 6 1 C6.33 1.99 6.66 2.98 7 4 C7.33 4.66 7.66 5.32 8 6 C7.01 7.485 7.01 7.485 6 9 C4.99712471 7.68969568 3.99777175 6.37669473 3 5.0625 C2.443125 4.33160156 1.88625 3.60070312 1.3125 2.84765625 C0 1 0 1 0 0 Z " fill="#D7EADE" transform="translate(553,593)"/>
<path d="M0 0 C3.72114571 2.31537955 6.61229661 4.28579473 9 8 C5.33118845 7.29445932 2.29549466 5.72264494 -1 4 C-0.67 2.68 -0.34 1.36 0 0 Z " fill="#DCF1E0" transform="translate(555,486)"/>
<path d="M0 0 C2.96404505 2.80804268 5.44499019 5.18315774 7 9 C6.01 9 5.02 9 4 9 C4 8.34 4 7.68 4 7 C3.01 6.67 2.02 6.34 1 6 C0.67 4.02 0.34 2.04 0 0 Z " fill="#4B8344" transform="translate(408,415)"/>
<path d="M0 0 C2.96404505 2.80804268 5.44499019 5.18315774 7 9 C6.01 9.33 5.02 9.66 4 10 C3.34 8.35 2.68 6.7 2 5 C1.34 5 0.68 5 0 5 C0 3.35 0 1.7 0 0 Z " fill="#4D8445" transform="translate(383,384)"/>
<path d="M0 0 C6.57142857 5.14285714 6.57142857 5.14285714 8 9 C3.25 8.25 3.25 8.25 1 6 C0.60235737 4.01178687 0.26224651 2.01055661 0 0 Z " fill="#488341" transform="translate(360,356)"/>
<path d="M0 0 C3.36591866 1.44253657 5.51047079 3.33264727 8 6 C5.33333333 6 2.66666667 6 0 6 C0 4.02 0 2.04 0 0 Z " fill="#E0EFE5" transform="translate(584,510)"/>
<path d="M0 0 C1.79240663 0.11389875 3.58394835 0.24147687 5.375 0.375 C6.87160156 0.47941406 6.87160156 0.47941406 8.3984375 0.5859375 C11 1 11 1 13 3 C11.20841511 3.02696365 9.41671527 3.04637917 7.625 3.0625 C6.62726563 3.07410156 5.62953125 3.08570313 4.6015625 3.09765625 C2 3 2 3 0 2 C0 1.34 0 0.68 0 0 Z " fill="#D3E3D9" transform="translate(305,719)"/>
<path d="M0 0 C4.21906002 1.05476501 5.23439584 1.8529332 8 5 C8.33 5.66 8.66 6.32 9 7 C8.01 7.33 7.02 7.66 6 8 C4.02 5.36 2.04 2.72 0 0 Z M7 1 C7.33 1.66 7.66 2.32 8 3 C7.34 2.67 6.68 2.34 6 2 C6.33 1.67 6.66 1.34 7 1 Z " fill="#D5E7DD" transform="translate(613,668)"/>
<path d="M0 0 C1.875 0.25 1.875 0.25 4 1 C5 2.8125 5 2.8125 6 5 C7.29470975 6.37086915 8.62150897 7.71340837 10 9 C9.34 9.66 8.68 10.32 8 11 C6.66375099 9.35653302 5.33107149 7.71016314 4 6.0625 C3.2575 5.14597656 2.515 4.22945313 1.75 3.28515625 C0 1 0 1 0 0 Z M9 6 C11 7 11 7 11 7 Z " fill="#DDF0E1" transform="translate(429,440)"/>
<path d="M0 0 C2.96404505 2.80804268 5.44499019 5.18315774 7 9 C4 9 4 9 1 7 C0.3125 3.375 0.3125 3.375 0 0 Z " fill="#4E8548" transform="translate(368,365)"/>
<path d="M0 0 C1.32 0.33 2.64 0.66 4 1 C4 1.99 4 2.98 4 4 C4.99 4.33 5.98 4.66 7 5 C7.33 6.65 7.66 8.3 8 10 C4.71211176 6.88983545 2.16264012 3.98381075 0 0 Z " fill="#E0F0DF" transform="translate(330,317)"/>
<path d="M0 0 C2.475 0.495 2.475 0.495 5 1 C5.33 1.99 5.66 2.98 6 4 C6.99 3.67 7.98 3.34 9 3 C9 4.32 9 5.64 9 7 C7.4972763 6.02501855 5.99788037 5.04490611 4.5 4.0625 C3.6646875 3.51722656 2.829375 2.97195313 1.96875 2.41015625 C1.3190625 1.94480469 0.669375 1.47945312 0 1 C0 0.67 0 0.34 0 0 Z " fill="#4E8348" transform="translate(234,688)"/>
<path d="M0 0 C2.625 0.375 2.625 0.375 5 1 C5 2.98 5 4.96 5 7 C2.69 5.35 0.38 3.7 -2 2 C-1.34 1.34 -0.68 0.68 0 0 Z " fill="#77B675" transform="translate(735,628)"/>
<path d="M0 0 C0.99 0 1.98 0 3 0 C3 0.99 3 1.98 3 3 C4.32 3.33 5.64 3.66 7 4 C7 5.65 7 7.3 7 9 C4.03595495 6.19195732 1.55500981 3.81684226 0 0 Z " fill="#E5F6E4" transform="translate(366,361)"/>
<path d="M0 0 C3.36591866 1.44253657 5.51047079 3.33264727 8 6 C4.65626525 5.44271087 1.96687001 4.64826111 -1 3 C-0.67 2.01 -0.34 1.02 0 0 Z " fill="#E0F1E5" transform="translate(511,451)"/>
<path d="M0 0 C4.95 1.98 4.95 1.98 10 4 C9.34 4.66 8.68 5.32 8 6 C5.12312519 5.77870194 3.46048856 5.36521506 1.1875 3.5625 C0 2 0 2 0 0 Z " fill="#C2DAC7" transform="translate(254,702)"/>
<path d="M0 0 C4.875 2.75 4.875 2.75 6 5 C5.01 5.33 4.02 5.66 3 6 C2.34 5.34 1.68 4.68 1 4 C1.33 3.34 1.66 2.68 2 2 C1.34 2 0.68 2 0 2 C0 1.34 0 0.68 0 0 Z M-2 5 C-1.01 5.33 -0.02 5.66 1 6 C0.34 6.66 -0.32 7.32 -1 8 C-1.33 7.01 -1.66 6.02 -2 5 Z " fill="#E4F5E3" transform="translate(321,298)"/>
<path d="M0 0 C0.928125 0.2784375 0.928125 0.2784375 1.875 0.5625 C4.04160178 1.23686176 4.04160178 1.23686176 6 0 C6.66 1.98 7.32 3.96 8 6 C4.63408134 4.55746343 2.48952921 2.66735273 0 0 Z " fill="#7BB878" transform="translate(439,392)"/>
<path d="M0 0 C0.66 0 1.32 0 2 0 C2 1.32 2 2.64 2 4 C2.99 4.33 3.98 4.66 5 5 C5 5.66 5 6.32 5 7 C2.11562221 5.70700306 0.12780579 4.34058637 -2 2 C-1.34 1.34 -0.68 0.68 0 0 Z " fill="#7AB977" transform="translate(406,362)"/>
<path d="M0 0 C0.28875 0.598125 0.5775 1.19625 0.875 1.8125 C2.04742026 4.19327792 2.04742026 4.19327792 4 7 C3.01 7 2.02 7 1 7 C-1.1875 4 -1.1875 4 -3 1 C-2.01 0.67 -1.02 0.34 0 0 Z " fill="#D5E6DA" transform="translate(550,585)"/>
<path d="M0 0 C3.465 1.98 3.465 1.98 7 4 C7 4.66 7 5.32 7 6 C3 6 3 6 1.25 4.6875 C0 3 0 3 0 0 Z " fill="#E4F6E6" transform="translate(372,339)"/>
<path d="M0 0 C3.36720387 1.39332574 4.9859524 2.9789286 7 6 C4 6 4 6 1.8125 4.125 C0 2 0 2 0 0 Z " fill="#71B26E" transform="translate(691,198)"/>
<path d="M0 0 C0.33 1.98 0.66 3.96 1 6 C-0.9375 5.1875 -0.9375 5.1875 -3 4 C-3.33 3.01 -3.66 2.02 -4 1 C-2 0 -2 0 0 0 Z " fill="#437D3B" transform="translate(222,671)"/>
<path d="M0 0 C0.99 0 1.98 0 3 0 C3 0.66 3 1.32 3 2 C3.99 2 4.98 2 6 2 C5.67 3.32 5.34 4.64 5 6 C3.31237149 4.3545622 1.6459651 2.68711423 0 1 C0 0.67 0 0.34 0 0 Z " fill="#D1E8D9" transform="translate(599,650)"/>
<path d="M0 0 C1.9451 2.91765 2.45276317 4.62537285 3 8 C1.68 7.67 0.36 7.34 -1 7 C-0.67 4.69 -0.34 2.38 0 0 Z " fill="#D0E4D6" transform="translate(186,618)"/>
<path d="M0 0 C3.057952 1.73559438 5.63379989 3.38472619 8 6 C7.01 6.33 6.02 6.66 5 7 C3.5 5.625 3.5 5.625 2 4 C2 3.34 2 2.68 2 2 C1.34 2 0.68 2 0 2 C0 1.34 0 0.68 0 0 Z " fill="#DEF0E3" transform="translate(594,518)"/>
<path d="M0 0 C2.31 1.65 4.62 3.3 7 5 C5 6 5 6 1 6 C0.67 4.02 0.34 2.04 0 0 Z " fill="#DFF4E5" transform="translate(529,465)"/>
<path d="M0 0 C0.99 0 1.98 0 3 0 C4 3 4 3 3 6 C3.66 6.33 4.32 6.66 5 7 C4.01 7 3.02 7 2 7 C1.34 4.69 0.68 2.38 0 0 Z " fill="#DFF3DD" transform="translate(723,235)"/>
<path d="M0 0 C0.33 0.66 0.66 1.32 1 2 C2.64363134 2.72159424 4.31050386 3.39351421 6 4 C5.67 5.32 5.34 6.64 5 8 C2.5 5.6875 2.5 5.6875 0 3 C0 2.01 0 1.02 0 0 Z " fill="#E3F6E2" transform="translate(697,200)"/>
<path d="M0 0 C1.32 0 2.64 0 4 0 C4.66 1.65 5.32 3.3 6 5 C5.01 5 4.02 5 3 5 C1.3125 2.5 1.3125 2.5 0 0 Z " fill="#CEE4D3" transform="translate(640,701)"/>
<path d="M0 0 C4.875 1.75 4.875 1.75 6 4 C3.69 4 1.38 4 -1 4 C-0.67 2.68 -0.34 1.36 0 0 Z " fill="#D2E8D9" transform="translate(236,691)"/>
<path d="M0 0 C2.31 1.65 4.62 3.3 7 5 C6.01 5.66 5.02 6.32 4 7 C3.67 6.01 3.34 5.02 3 4 C2.01 4 1.02 4 0 4 C0 2.68 0 1.36 0 0 Z " fill="#D6EBDF" transform="translate(225,681)"/>
<path d="M0 0 C4 4.625 4 4.625 4 8 C2.35 6.68 0.7 5.36 -1 4 C-0.67 2.68 -0.34 1.36 0 0 Z " fill="#C7E1D0" transform="translate(201,650)"/>
<path d="M0 0 C2.50037734 2.17424117 3.43628586 3.73045798 4 7 C3.34 7 2.68 7 2 7 C2 6.34 2 5.68 2 5 C1.01 4.67 0.02 4.34 -1 4 C-0.67 2.68 -0.34 1.36 0 0 Z " fill="#CCE3D1" transform="translate(193,636)"/>
<path d="M0 0 C2.64 1.98 5.28 3.96 8 6 C7.01 6.33 6.02 6.66 5 7 C4.34 6.34 3.68 5.68 3 5 C2.46375 4.505 1.9275 4.01 1.375 3.5 C0 2 0 2 0 0 Z " fill="#D6ECDC" transform="translate(632,548)"/>
<path d="M0 0 C0.99 0.99 1.98 1.98 3 3 C1.68 3.99 0.36 4.98 -1 6 C-1.33 5.01 -1.66 4.02 -2 3 C-1.34 2.01 -0.68 1.02 0 0 Z " fill="#E1EFEA" transform="translate(628,545)"/>
<path d="M0 0 C2.31 0.66 4.62 1.32 7 2 C7.33 3.32 7.66 4.64 8 6 C1.125 2.25 1.125 2.25 0 0 Z " fill="#7AB679" transform="translate(599,521)"/>
<path d="M0 0 C1.32 1.32 2.64 2.64 4 4 C2.35 4.33 0.7 4.66 -1 5 C-1 2 -1 2 0 0 Z " fill="#E2EEE9" transform="translate(580,506)"/>
<path d="M0 0 C0 3 0 3 0 3 Z M-6 2 C-3.525 2.495 -3.525 2.495 -1 3 C-0.67 4.32 -0.34 5.64 0 7 C-2.01920337 5.69593116 -4.01924973 4.36176581 -6 3 C-6 2.67 -6 2.34 -6 2 Z " fill="#7EBA79" transform="translate(332,299)"/>
</svg>
