<?xml version="1.0" encoding="UTF-8"?>
<svg version="1.1" xmlns="http://www.w3.org/2000/svg" width="200" height="200">
<path d="M0 0 C66 0 132 0 200 0 C200 66 200 132 200 200 C134 200 68 200 0 200 C0 134 0 68 0 0 Z " fill="#FDF9ED" transform="translate(0,0)"/>
<path d="M0 0 C5.2040868 2.99463241 8.85851123 5.94401684 12.1875 10.9375 C12.1875 11.5975 12.1875 12.2575 12.1875 12.9375 C12.8475 12.9375 13.5075 12.9375 14.1875 12.9375 C19.72518131 25.19950861 21.08500664 34.57315066 16.3125 47.31640625 C11.88423436 57.63365015 3.38416293 63.81397641 -6.8125 67.9375 C-9.875 68.75 -9.875 68.75 -12.8125 68.9375 C-13.47636719 68.98777344 -14.14023438 69.03804688 -14.82421875 69.08984375 C-25.61765619 69.56076161 -34.60304264 65.56834883 -42.53125 58.37890625 C-49.57366945 50.8873529 -53.17814201 40.81580339 -53.109375 30.62109375 C-52.44682296 24.63197198 -50.51040786 18.33331572 -47.8125 12.9375 C-47.1525 12.9375 -46.4925 12.9375 -45.8125 12.9375 C-45.4103125 11.7928125 -45.4103125 11.7928125 -45 10.625 C-43.86115495 8.04761382 -42.99833329 6.66795136 -40.8125 4.9375 C-40.1525 4.9375 -39.4925 4.9375 -38.8125 4.9375 C-38.8125 4.2775 -38.8125 3.6175 -38.8125 2.9375 C-27.14389771 -4.88814944 -12.75012127 -6.38545476 0 0 Z " fill="#F8BA41" transform="translate(116.8125,67.0625)"/>
<path d="M0 0 C2.49505962 2.49505962 2.35948376 3.67328888 2.625 7.125 C2.69976562 8.03507812 2.77453125 8.94515625 2.8515625 9.8828125 C2.90054688 10.58148438 2.94953125 11.28015625 3 12 C3.99 12.33 4.98 12.66 6 13 C5.67 13.99 5.34 14.98 5 16 C5.763125 16.103125 6.52625 16.20625 7.3125 16.3125 C10.21867978 17.05594134 11.19913049 17.65886963 13 20 C13.33 20.99 13.66 21.98 14 23 C14.99 23 15.98 23 17 23 C17.33 24.32 17.66 25.64 18 27 C19.32 26.67 20.64 26.34 22 26 C22 26.66 22 27.32 22 28 C22.66 28 23.32 28 24 28 C24.66 27.34 25.32 26.68 26 26 C26.33 26.99 26.66 27.98 27 29 C27.33 28.67 27.66 28.34 28 28 C30.67058851 27.85884839 33.32432238 27.95752893 36 28 C36.495 28.99 36.495 28.99 37 30 C39.02463255 30.65213292 39.02463255 30.65213292 41 31 C41 30.01 41 29.02 41 28 C41.886875 28.103125 42.77375 28.20625 43.6875 28.3125 C47.17583536 28.29519059 47.17583536 28.29519059 49.8125 25.6875 C52.15007563 23.13914376 52.15007563 23.13914376 53 20 C53.99 19.67 54.98 19.34 56 19 C56.66 19.33 57.32 19.66 58 20 C59.32 20 60.64 20 62 20 C62.0825 19.38125 62.165 18.7625 62.25 18.125 C63 16 63 16 65.0625 14.75 C65.701875 14.5025 66.34125 14.255 67 14 C69.06751018 18.13502036 68.61721584 23.10863066 67.2109375 27.41796875 C66.22422567 29.66631593 65.15188141 31.8322527 64 34 C63.5875 34.86625 63.175 35.7325 62.75 36.625 C57.15952634 44.21207139 49.01095207 49.40525761 39.9375 51.8125 C38.968125 51.874375 37.99875 51.93625 37 52 C36.33613281 52.05027344 35.67226562 52.10054687 34.98828125 52.15234375 C24.19484381 52.62326161 15.20945736 48.63084883 7.28125 41.44140625 C0.15212326 33.85761582 -3.30376123 23.845103 -3.234375 13.55859375 C-2.80634297 8.88591072 -1.40112734 4.46192338 0 0 Z " fill="#D97A37" transform="translate(67,84)"/>
<path d="M0 0 C1.65 0 3.3 0 5 0 C5 0.99 5 1.98 5 3 C6.32 3.66 7.64 4.32 9 5 C8.01 5 7.02 5 6 5 C6 5.66 6 6.32 6 7 C6.99 7.33 7.98 7.66 9 8 C9 10.33333333 9 12.66666667 9 15 C12.49234244 15.09978121 15.59437148 14.77842938 19 14 C19 14.66 19 15.32 19 16 C20.65 16 22.3 16 24 16 C24.33 15.34 24.66 14.68 25 14 C25 14.66 25 15.32 25 16 C25.7425 15.95875 26.485 15.9175 27.25 15.875 C30.08758952 16.00398134 31.58773938 16.57051222 34 18 C34.33 17.34 34.66 16.68 35 16 C35 16.99 35 17.98 35 19 C35.64324219 18.79503906 36.28648438 18.59007813 36.94921875 18.37890625 C43.49977793 16.42588647 49.61559786 15.57374738 56.4453125 15.30859375 C57.28835937 15.20675781 58.13140625 15.10492188 59 15 C59.33 14.34 59.66 13.68 60 13 C62.5625 12.375 62.5625 12.375 65 12 C63.58732575 16.49487261 61.46089404 18.84674098 58 22 C57.45988281 22.50917969 56.91976562 23.01835938 56.36328125 23.54296875 C49.06775774 30.18271487 41.16002796 32.37432933 31.421875 32.2109375 C21.67154089 31.36171485 13.24647177 26.82507427 6.6875 19.625 C1.67185119 13.2681192 -0.5814449 8.14022855 0 0 Z " fill="#C86237" transform="translate(66,104)"/>
<path d="M0 0 C2.49505962 2.49505962 2.35948376 3.67328888 2.625 7.125 C2.69976562 8.03507812 2.77453125 8.94515625 2.8515625 9.8828125 C2.90054688 10.58148438 2.94953125 11.28015625 3 12 C3.99 12.33 4.98 12.66 6 13 C5.67 13.99 5.34 14.98 5 16 C5.763125 16.103125 6.52625 16.20625 7.3125 16.3125 C10.21867978 17.05594134 11.19913049 17.65886963 13 20 C13.33 20.99 13.66 21.98 14 23 C14.99 23 15.98 23 17 23 C17.33 24.32 17.66 25.64 18 27 C19.32 26.67 20.64 26.34 22 26 C22 26.66 22 27.32 22 28 C22.66 28 23.32 28 24 28 C24.66 27.34 25.32 26.68 26 26 C26.33 26.99 26.66 27.98 27 29 C27.33 28.67 27.66 28.34 28 28 C30.67058851 27.85884839 33.32432238 27.95752893 36 28 C36.495 28.99 36.495 28.99 37 30 C39.01669827 31.13350534 39.01669827 31.13350534 41 32 C37.23564408 34.49055871 34.13382623 34.03090984 29.75 33.625 C28.48671875 33.51414063 27.2234375 33.40328125 25.921875 33.2890625 C24.95765625 33.19367188 23.9934375 33.09828125 23 33 C23 32.01 23 31.02 23 30 C22.071875 30.185625 21.14375 30.37125 20.1875 30.5625 C17 31 17 31 14 30 C14 29.34 14 28.68 14 28 C11.03 27.67 8.06 27.34 5 27 C5.33 26.01 5.66 25.02 6 24 C4.68 23.34 3.36 22.68 2 22 C2 21.34 2 20.68 2 20 C1.01 20 0.02 20 -1 20 C-1 21.65 -1 23.3 -1 25 C-1.33 25 -1.66 25 -2 25 C-4.27352444 16.1900928 -2.67768469 8.52715066 0 0 Z " fill="#E5923B" transform="translate(67,84)"/>
<path d="M0 0 C4.90020627 2.65673834 7.78453601 5.5237683 11.125 9.875 C10.17625 9.66875 9.2275 9.4625 8.25 9.25 C7.21875 9.12625 6.1875 9.0025 5.125 8.875 C4.465 9.535 3.805 10.195 3.125 10.875 C3.455 8.895 3.785 6.915 4.125 4.875 C2.145 4.545 0.165 4.215 -1.875 3.875 C-1.875 3.215 -1.875 2.555 -1.875 1.875 C-2.761875 1.75125 -3.64875 1.6275 -4.5625 1.5 C-10.34096681 0.67621031 -16.10697561 -0.23160675 -21.875 -1.125 C-21.545 1.515 -21.215 4.155 -20.875 6.875 C-21.865 6.875 -22.855 6.875 -23.875 6.875 C-24.535 5.225 -25.195 3.575 -25.875 1.875 C-26.865 1.875 -27.855 1.875 -28.875 1.875 C-28.545 2.865 -28.215 3.855 -27.875 4.875 C-29.195 4.875 -30.515 4.875 -31.875 4.875 C-31.875 4.215 -31.875 3.555 -31.875 2.875 C-34.98705929 4.86012949 -34.98705929 4.86012949 -36.625 8.0625 C-36.7075 8.660625 -36.79 9.25875 -36.875 9.875 C-37.535 9.875 -38.195 9.875 -38.875 9.875 C-38.875 9.215 -38.875 8.555 -38.875 7.875 C-42.63930913 9.12976971 -42.92544108 10.56922618 -44.875 13.875 C-45.535 13.875 -46.195 13.875 -46.875 13.875 C-46.875 14.865 -46.875 15.855 -46.875 16.875 C-47.535 16.875 -48.195 16.875 -48.875 16.875 C-48.545 15.555 -48.215 14.235 -47.875 12.875 C-47.215 12.875 -46.555 12.875 -45.875 12.875 C-45.606875 12.111875 -45.33875 11.34875 -45.0625 10.5625 C-43.92365495 7.98511382 -43.06083329 6.60545136 -40.875 4.875 C-40.215 4.875 -39.555 4.875 -38.875 4.875 C-38.875 4.215 -38.875 3.555 -38.875 2.875 C-27.13119788 -5.00108286 -12.80584291 -6.40292146 0 0 Z " fill="#F4C464" transform="translate(116.875,67.125)"/>
<path d="M0 0 C0.125 7.75 0.125 7.75 -1 10 C-1.99 10 -2.98 10 -4 10 C-4 10.66 -4 11.32 -4 12 C-5.65 12 -7.3 12 -9 12 C-9.33 12.66 -9.66 13.32 -10 14 C-10 13.34 -10 12.68 -10 12 C-10.66 12 -11.32 12 -12 12 C-12 12.66 -12 13.32 -12 14 C-12.804375 14.12375 -13.60875 14.2475 -14.4375 14.375 C-15.283125 14.58125 -16.12875 14.7875 -17 15 C-17.33 15.66 -17.66 16.32 -18 17 C-20.64860427 17.59355614 -23.29197322 17.74209269 -26 18 C-26 16.68 -26 15.36 -26 14 C-24.6696875 14.1546875 -24.6696875 14.1546875 -23.3125 14.3125 C-19.82416464 14.29519059 -19.82416464 14.29519059 -17.1875 11.6875 C-14.84992437 9.13914376 -14.84992437 9.13914376 -14 6 C-13.01 5.67 -12.02 5.34 -11 5 C-10.34 5.33 -9.68 5.66 -9 6 C-7.68 6 -6.36 6 -5 6 C-4.896875 5.38125 -4.79375 4.7625 -4.6875 4.125 C-3.92730223 1.77529781 -2.85021248 0 0 0 Z " fill="#E89C3D" transform="translate(134,98)"/>
<path d="M0 0 C2.49505962 2.49505962 2.35948376 3.67328888 2.625 7.125 C2.69976562 8.03507812 2.77453125 8.94515625 2.8515625 9.8828125 C2.90054688 10.58148438 2.94953125 11.28015625 3 12 C3.99 12.33 4.98 12.66 6 13 C5.67 13.99 5.34 14.98 5 16 C6.65 16.33 8.3 16.66 10 17 C10 18.32 10 19.64 10 21 C9.01 21 8.02 21 7 21 C7 20.34 7 19.68 7 19 C5.02463255 19.34786708 5.02463255 19.34786708 3 20 C2.67 20.66 2.34 21.32 2 22 C2 21.34 2 20.68 2 20 C1.01 20 0.02 20 -1 20 C-1 21.65 -1 23.3 -1 25 C-1.33 25 -1.66 25 -2 25 C-4.27352444 16.1900928 -2.67768469 8.52715066 0 0 Z " fill="#DE9349" transform="translate(67,84)"/>
<path d="M0 0 C1.65 0 3.3 0 5 0 C5 0.99 5 1.98 5 3 C6.32 3.66 7.64 4.32 9 5 C8.01 5 7.02 5 6 5 C6 5.66 6 6.32 6 7 C6.99 7.33 7.98 7.66 9 8 C9 10.33333333 9 12.66666667 9 15 C10.32 15.33 11.64 15.66 13 16 C12.34 16.33 11.68 16.66 11 17 C11.33 19.31 11.66 21.62 12 24 C6.03797534 19.88336393 2.69290001 14.71354933 0 8 C-0.43505156 5.10871985 -0.33177553 2.93068388 0 0 Z " fill="#C96941" transform="translate(66,104)"/>
<path d="M0 0 C7.50769231 -0.36923077 7.50769231 -0.36923077 10 1.5 C10.33 1.995 10.66 2.49 11 3 C3.31310139 8.85668465 -5.60851494 7.50552565 -14.8125 6.625 C-15.864375 6.41875 -16.91625 6.2125 -18 6 C-18.33 5.34 -18.66 4.68 -19 4 C-17.5225254 3.63883954 -16.04295325 3.28624952 -14.5625 2.9375 C-13.73878906 2.74027344 -12.91507812 2.54304687 -12.06640625 2.33984375 C-11.04353516 2.17162109 -11.04353516 2.17162109 -10 2 C-9.67 2.33 -9.34 2.66 -9 3 C-4.34911285 3.30523962 -4.34911285 3.30523962 0 2 C0 1.34 0 0.68 0 0 Z M-9 1 C-6.03 1.495 -6.03 1.495 -3 2 C-3 2.33 -3 2.66 -3 3 C-4.98 3 -6.96 3 -9 3 C-9 2.34 -9 1.68 -9 1 Z " fill="#C0522D" transform="translate(106,127)"/>
<path d="M0 0 C0.33 2.64 0.66 5.28 1 8 C0.01 8 -0.98 8 -2 8 C-2.66 6.35 -3.32 4.7 -4 3 C-4.99 3 -5.98 3 -7 3 C-6.67 3.99 -6.34 4.98 -6 6 C-7.32 6 -8.64 6 -10 6 C-10 5.34 -10 4.68 -10 4 C-13.11205929 5.98512949 -13.11205929 5.98512949 -14.75 9.1875 C-14.8325 9.785625 -14.915 10.38375 -15 11 C-15.66 11 -16.32 11 -17 11 C-17 10.34 -17 9.68 -17 9 C-20.76430913 10.25476971 -21.05044108 11.69422618 -23 15 C-23.66 15 -24.32 15 -25 15 C-25 15.99 -25 16.98 -25 18 C-25.66 18 -26.32 18 -27 18 C-26.67 16.68 -26.34 15.36 -26 14 C-25.34 14 -24.68 14 -24 14 C-23.731875 13.236875 -23.46375 12.47375 -23.1875 11.6875 C-22.04865495 9.11011382 -21.18583329 7.73045136 -19 6 C-18.34 6 -17.68 6 -17 6 C-17 5.34 -17 4.68 -17 4 C-11.31753302 0.81227462 -6.47047595 0 0 0 Z " fill="#FAC04B" transform="translate(95,66)"/>
<path d="M0 0 C0.33 0 0.66 0 1 0 C0.979375 0.9075 0.95875 1.815 0.9375 2.75 C0.84039034 5.85671113 0.84039034 5.85671113 1.6875 8.125 C1.790625 8.74375 1.89375 9.3625 2 10 C1.505 10.639375 1.01 11.27875 0.5 11.9375 C-1.31930548 13.95072841 -1.31930548 13.95072841 -0.6875 16.75 C-0.3471875 17.86375 -0.3471875 17.86375 0 19 C-0.66 18.34 -1.32 17.68 -2 17 C-2.66 17.33 -3.32 17.66 -4 18 C-4.33 17.01 -4.66 16.02 -5 15 C-5.33 15.66 -5.66 16.32 -6 17 C-6.66 17 -7.32 17 -8 17 C-8.33 18.65 -8.66 20.3 -9 22 C-10.98 22 -12.96 22 -15 22 C-14.07038578 20.84775972 -13.1309875 19.70340824 -12.1875 18.5625 C-11.66542969 17.92441406 -11.14335938 17.28632812 -10.60546875 16.62890625 C-9 15 -9 15 -6 14 C-4.96026816 11.86673164 -4.96026816 11.86673164 -4 9 C-3.30207802 7.39127637 -2.59304071 5.7873451 -1.875 4.1875 C-1.34519531 3.00220703 -1.34519531 3.00220703 -0.8046875 1.79296875 C-0.53914062 1.20128906 -0.27359375 0.60960938 0 0 Z " fill="#F9F8E9" transform="translate(134,109)"/>
<path d="M0 0 C-1.28913487 0.67154933 -2.58140204 1.33708859 -3.875 2 C-4.59429687 2.37125 -5.31359375 2.7425 -6.0546875 3.125 C-8 4 -8 4 -10 4 C-10 4.66 -10 5.32 -10 6 C-10.78375 6.61875 -11.5675 7.2375 -12.375 7.875 C-14.86229156 9.88852174 -15.85538266 11.08642859 -17 14 C-17.66 14 -18.32 14 -19 14 C-19 14.66 -19 15.32 -19 16 C-19.66 16 -20.32 16 -21 16 C-21.3669579 9.51707705 -21.3669579 9.51707705 -19.625 7.0625 C-18 6 -18 6 -16 6 C-15.7525 5.360625 -15.505 4.72125 -15.25 4.0625 C-14 2 -14 2 -12 1.1875 C-10 1 -10 1 -8 2 C-8 1.34 -8 0.68 -8 0 C-4.71303767 -0.79953138 -3.28976808 -1.09658936 0 0 Z " fill="#FAF6DD" transform="translate(88,66)"/>
<path d="M0 0 C0.33 0.66 0.66 1.32 1 2 C1.66 2 2.32 2 3 2 C3.66 1.34 4.32 0.68 5 0 C5.33 0.99 5.66 1.98 6 3 C6.33 2.67 6.66 2.34 7 2 C9.67058851 1.85884839 12.32432238 1.95752893 15 2 C15.33 2.66 15.66 3.32 16 4 C18.01669827 5.13350534 18.01669827 5.13350534 20 6 C16.23564408 8.49055871 13.13382623 8.03090984 8.75 7.625 C7.48671875 7.51414062 6.2234375 7.40328125 4.921875 7.2890625 C3.95765625 7.19367188 2.9934375 7.09828125 2 7 C2 6.01 2 5.02 2 4 C0.68 4.33 -0.64 4.66 -2 5 C-1.125 1.125 -1.125 1.125 0 0 Z " fill="#E9993B" transform="translate(88,110)"/>
<path d="M0 0 C1.19625 0.09925781 2.3925 0.19851562 3.625 0.30078125 C9.30785791 0.95194205 9.30785791 0.95194205 12 1.6875 C13.3125 3.75 13.3125 3.75 14 5.6875 C13.27981689 5.52451416 12.55963379 5.36152832 11.81762695 5.19360352 C9.10597883 4.70653597 6.66780647 4.57297358 3.91796875 4.58984375 C2.98662109 4.59306641 2.05527344 4.59628906 1.09570312 4.59960938 C0.13599609 4.60798828 -0.82371094 4.61636719 -1.8125 4.625 C-2.79154297 4.62951172 -3.77058594 4.63402344 -4.77929688 4.63867188 C-7.18626111 4.65041316 -9.59309857 4.66683581 -12 4.6875 C-12 3.6975 -12 2.7075 -12 1.6875 C-7.77498861 -0.40099995 -4.65779085 -0.41659121 0 0 Z " fill="#FBF3CD" transform="translate(100,60.3125)"/>
<path d="M0 0 C0.33 0.66 0.66 1.32 1 2 C1.66 2 2.32 2 3 2 C6.8713719 10.57232349 8.76397365 17.57765837 8 27 C7.67 27 7.34 27 7 27 C6.67 24.03 6.34 21.06 6 18 C4.35 18 2.7 18 1 18 C1.66 14.37 2.32 10.74 3 7 C2.34 7 1.68 7 1 7 C0.67 4.69 0.34 2.38 0 0 Z " fill="#EEB054" transform="translate(128,78)"/>
<path d="M0 0 C1.9451 2.91765 2.45276317 4.62537285 3 8 C3.99 7.67 4.98 7.34 6 7 C6 9.64 6 12.28 6 15 C2.25 16.125 2.25 16.125 0 15 C-0.6328125 12.27734375 -0.6328125 12.27734375 -1.125 8.9375 C-1.29257813 7.83277344 -1.46015625 6.72804688 -1.6328125 5.58984375 C-1.75398438 4.73519531 -1.87515625 3.88054687 -2 3 C-1.34 3 -0.68 3 0 3 C0 2.01 0 1.02 0 0 Z " fill="#E99F43" transform="translate(70,81)"/>
<path d="M0 0 C0.99 1.051875 0.99 1.051875 2 2.125 C5.35837097 5.49293898 9.16311992 8.20815486 13 11 C14.3347248 11.99814202 15.66844813 12.99762911 17 14 C13.42355152 15.2380014 10.66305234 14.74926071 7 14 C7.33 12.35 7.66 10.7 8 9 C6.02 9.33 4.04 9.66 2 10 C2.33 9.01 2.66 8.02 3 7 C2.34 7 1.68 7 1 7 C0.67 4.69 0.34 2.38 0 0 Z " fill="#FAEFDD" transform="translate(70,120)"/>
<path d="M0 0 C1.31571603 0.2547514 2.62760376 0.52934141 3.9375 0.8125 C4.66839844 0.96332031 5.39929688 1.11414063 6.15234375 1.26953125 C6.76207031 1.51058594 7.37179688 1.75164062 8 2 C8.33 2.99 8.66 3.98 9 5 C9.33 5.66 9.66 6.32 10 7 C9.34 7 8.68 7 8 7 C7.67 7.66 7.34 8.32 7 9 C3 9 3 9 0 8 C-1.24513185 4.99093136 -0.84653438 3.0590674 0 0 Z " fill="#D8753A" transform="translate(75,111)"/>
<path d="M0 0 C0.125 7.75 0.125 7.75 -1 10 C-1.99 10 -2.98 10 -4 10 C-4 10.66 -4 11.32 -4 12 C-5.32 12 -6.64 12 -8 12 C-7.60304363 10.37007308 -7.18167507 8.74607765 -6.75 7.125 C-6.51796875 6.22007813 -6.2859375 5.31515625 -6.046875 4.3828125 C-5 2 -5 2 -2.953125 0.6796875 C-1 0 -1 0 0 0 Z " fill="#E2913D" transform="translate(134,98)"/>
<path d="M0 0 C1.65 0 3.3 0 5 0 C4.01 2.31 3.02 4.62 2 7 C1.34 7 0.68 7 0 7 C0 6.34 0 5.68 0 5 C-3.76430913 6.25476971 -4.05044108 7.69422618 -6 11 C-6.66 11 -7.32 11 -8 11 C-8 11.99 -8 12.98 -8 14 C-8.66 14 -9.32 14 -10 14 C-9.67 12.68 -9.34 11.36 -9 10 C-8.34 10 -7.68 10 -7 10 C-6.731875 9.236875 -6.46375 8.47375 -6.1875 7.6875 C-5.04865495 5.11011382 -4.18583329 3.73045136 -2 2 C-1.34 2 -0.68 2 0 2 C0 1.34 0 0.68 0 0 Z " fill="#EDB760" transform="translate(78,70)"/>
<path d="M0 0 C0.66 0 1.32 0 2 0 C2 0.66 2 1.32 2 2 C3.32 1.67 4.64 1.34 6 1 C5.67 2.65 5.34 4.3 5 6 C5.99 6 6.98 6 8 6 C7.67 6.99 7.34 7.98 7 9 C4.69 8.67 2.38 8.34 0 8 C0.33 7.01 0.66 6.02 1 5 C0.34 4.67 -0.32 4.34 -1 4 C-0.67 2.68 -0.34 1.36 0 0 Z " fill="#DF8439" transform="translate(72,103)"/>
<path d="M0 0 C8.25 0.66 16.5 1.32 25 2 C25 2.33 25 2.66 25 3 C15.91973283 4.86261891 8.70580342 4.05339243 0 1 C0 0.67 0 0.34 0 0 Z " fill="#B96E53" transform="translate(85,132)"/>
<path d="M0 0 C1.65 0.33 3.3 0.66 5 1 C5 2.65 5 4.3 5 6 C4.34 5.67 3.68 5.34 3 5 C1.2984375 5.0309375 1.2984375 5.0309375 -0.4375 5.0625 C-4 5 -4 5 -7 3 C-4.69 2.34 -2.38 1.68 0 1 C0 0.67 0 0.34 0 0 Z " fill="#DF8639" transform="translate(112,114)"/>
<path d="M0 0 C0.33 0.66 0.66 1.32 1 2 C0.0625 4.125 0.0625 4.125 -1 6 C-1.66 6 -2.32 6 -3 6 C-3.33 7.65 -3.66 9.3 -4 11 C-5.98 11 -7.96 11 -10 11 C-9.07038578 9.84775972 -8.1309875 8.70340824 -7.1875 7.5625 C-6.40439453 6.60537109 -6.40439453 6.60537109 -5.60546875 5.62890625 C-4 4 -4 4 -1 3 C-0.67 2.01 -0.34 1.02 0 0 Z " fill="#F3DFC8" transform="translate(129,120)"/>
<path d="M0 0 C0.33 0 0.66 0 1 0 C1.40368295 6.45892714 0.5915262 11.06108578 -2 17 C-3.85776765 13.86501708 -4.20140476 11.62528568 -4 8 C-3.01 8 -2.02 8 -1 8 C-0.67 5.36 -0.34 2.72 0 0 Z " fill="#CE8552" transform="translate(134,100)"/>
<path d="M0 0 C1.32 0 2.64 0 4 0 C4 1.32 4 2.64 4 4 C4.66 4 5.32 4 6 4 C6.33 4.99 6.66 5.98 7 7 C5.125 8.0625 5.125 8.0625 3 9 C2.34 8.67 1.68 8.34 1 8 C0.40644386 5.35139573 0.25790731 2.70802678 0 0 Z " fill="#F1AB3C" transform="translate(88,104)"/>
<path d="M0 0 C1.65 0 3.3 0 5 0 C5 0.99 5 1.98 5 3 C6.32 3.66 7.64 4.32 9 5 C7.35 5.33 5.7 5.66 4 6 C4 6.66 4 7.32 4 8 C3.34 8 2.68 8 2 8 C0.74335022 5.09399739 0 3.20395416 0 0 Z " fill="#D5713C" transform="translate(66,104)"/>
<path d="M0 0 C0.66 0 1.32 0 2 0 C2.66 1.65 3.32 3.3 4 5 C1.36 5.33 -1.28 5.66 -4 6 C-4.33 5.01 -4.66 4.02 -5 3 C-3.35 2.67 -1.7 2.34 0 2 C0 1.34 0 0.68 0 0 Z " fill="#DC873B" transform="translate(122,110)"/>
<path d="M0 0 C4 3 4 3 4.875 6.5625 C4.936875 8.2640625 4.936875 8.2640625 5 10 C4.34 10.66 3.68 11.32 3 12 C3 11.34 3 10.68 3 10 C2.01 10 1.02 10 0 10 C0 6.7 0 3.4 0 0 Z " fill="#DC8238" transform="translate(66,94)"/>
<path d="M0 0 C0.99 0.495 0.99 0.495 2 1 C2 2.32 2 3.64 2 5 C2.66 5 3.32 5 4 5 C4 6.32 4 7.64 4 9 C4.66 9 5.32 9 6 9 C6 10.65 6 12.3 6 14 C3.01380463 11.44040397 1.51448438 8.6059152 0 5 C-0.1875 2.125 -0.1875 2.125 0 0 Z " fill="#C57250" transform="translate(66,107)"/>
<path d="M0 0 C0.66 0 1.32 0 2 0 C2 2.64 2 5.28 2 8 C0.68 8.33 -0.64 8.66 -2 9 C-1.125 1.125 -1.125 1.125 0 0 Z " fill="#F0A63D" transform="translate(74,88)"/>
<path d="M0 0 C0.99 0.66 1.98 1.32 3 2 C1.5437328 2.36256858 0.08488815 2.71479793 -1.375 3.0625 C-2.59316406 3.35833984 -2.59316406 3.35833984 -3.8359375 3.66015625 C-6 4 -6 4 -8 3 C-8 2.34 -8 1.68 -8 1 C-4.93240944 -0.8624657 -3.38040761 -1.30854488 0 0 Z " fill="#F9F2DE" transform="translate(121,132)"/>
<path d="M0 0 C-1.17866951 3.35467475 -2.23054922 5.71219284 -5 8 C-5.33 8 -5.66 8 -6 8 C-5.67 5.69 -5.34 3.38 -5 1 C-2 0 -2 0 0 0 Z " fill="#C5704B" transform="translate(131,116)"/>
<path d="M0 0 C0.86625 0.3403125 0.86625 0.3403125 1.75 0.6875 C2.08 2.0075 2.41 3.3275 2.75 4.6875 C1.43 4.6875 0.11 4.6875 -1.25 4.6875 C-1.25 4.0275 -1.25 3.3675 -1.25 2.6875 C-2.9 2.6875 -4.55 2.6875 -6.25 2.6875 C-2.80384615 -0.38942308 -2.80384615 -0.38942308 0 0 Z " fill="#EDBF4F" transform="translate(86.25,67.3125)"/>
<path d="M0 0 C-1.28913487 0.67154933 -2.58140204 1.33708859 -3.875 2 C-4.59429687 2.37125 -5.31359375 2.7425 -6.0546875 3.125 C-8 4 -8 4 -10 4 C-10.33 4.66 -10.66 5.32 -11 6 C-11 4.68 -11 3.36 -11 2 C-10.01 2 -9.02 2 -8 2 C-8 1.34 -8 0.68 -8 0 C-4.71303767 -0.79953138 -3.28976808 -1.09658936 0 0 Z " fill="#FAECC0" transform="translate(88,66)"/>
<path d="M0 0 C0.33 0 0.66 0 1 0 C0.67 3.63 0.34 7.26 0 11 C-1.32 11 -2.64 11 -4 11 C-3.71125 10.29875 -3.4225 9.5975 -3.125 8.875 C-1.97866412 5.94547497 -0.97374346 2.99078347 0 0 Z " fill="#F8EAD3" transform="translate(134,109)"/>
<path d="M0 0 C0.99 0 1.98 0 3 0 C3 1.65 3 3.3 3 5 C2.01 5 1.02 5 0 5 C-0.99 6.485 -0.99 6.485 -2 8 C-2 7.01 -2 6.02 -2 5 C-2.66 4.67 -3.32 4.34 -4 4 C-2.68 3.34 -1.36 2.68 0 2 C0 1.34 0 0.68 0 0 Z " fill="#EBA644" transform="translate(132,95)"/>
<path d="M0 0 C0.99 0.33 1.98 0.66 3 1 C3 2.65 3 4.3 3 6 C2.01 6.33 1.02 6.66 0 7 C0 5.68 0 4.36 0 3 C-0.66 3 -1.32 3 -2 3 C-2 2.34 -2 1.68 -2 1 C-1.34 0.67 -0.68 0.34 0 0 Z " fill="#D9803B" transform="translate(127,109)"/>
<path d="M0 0 C1.0625 1.875 1.0625 1.875 2 4 C1.67 4.66 1.34 5.32 1 6 C-0.65 5.67 -2.3 5.34 -4 5 C-3 2 -3 2 0 0 Z " fill="#D36939" transform="translate(79,114)"/>
<path d="M0 0 C0.33 0.66 0.66 1.32 1 2 C1.66 2 2.32 2 3 2 C3.66 4.31 4.32 6.62 5 9 C3.0625 8.4375 3.0625 8.4375 1 7 C0.25 3.375 0.25 3.375 0 0 Z " fill="#ECBD5E" transform="translate(128,78)"/>
<path d="M0 0 C0 0.99 0 1.98 0 3 C-2.64 3 -5.28 3 -8 3 C-8 2.34 -8 1.68 -8 1 C-2.25 0 -2.25 0 0 0 Z " fill="#FAEAD5" transform="translate(112,134)"/>
<path d="M0 0 C7.75 0.75 7.75 0.75 10 3 C3.47692308 3.36923077 3.47692308 3.36923077 1.0625 1.5 C0.5365625 0.7575 0.5365625 0.7575 0 0 Z " fill="#EEC872" transform="translate(104,64)"/>
</svg>
