<?xml version="1.0" encoding="UTF-8"?>
<svg version="1.1" xmlns="http://www.w3.org/2000/svg" width="600" height="600">
<path d="M0 0 C198 0 396 0 600 0 C600 198 600 396 600 600 C402 600 204 600 0 600 C0 402 0 204 0 0 Z " fill="#1292BF" transform="translate(0,0)"/>
<path d="M0 0 C0.84732193 0.00359528 1.69464386 0.00719055 2.56764221 0.01089478 C3.89922363 0.01067574 3.89922363 0.01067574 5.25770569 0.01045227 C8.20666404 0.01115174 11.15556006 0.01894568 14.10450745 0.02676392 C16.14332037 0.02862798 18.18213374 0.03005194 20.22094727 0.03105164 C25.59844693 0.03487776 30.97591978 0.04470884 36.35340881 0.05575562 C41.83619321 0.06596771 47.31898192 0.07054882 52.80177307 0.07559204 C63.56806093 0.08633103 74.33432883 0.10340858 85.1006012 0.12442017 C84.26557267 3.57264671 83.19273698 6.8733077 82.02638245 10.22598267 C81.60888733 11.42996704 81.19139221 12.63395142 80.76124573 13.87442017 C80.54099731 14.50734985 80.3207489 15.14027954 80.09382629 15.79238892 C78.94984004 19.08125963 77.81236677 22.37238021 76.67481995 25.66348267 C76.45056335 26.31206238 76.22630676 26.96064209 75.99525452 27.62887573 C74.21377023 32.7857953 72.45265775 37.94902274 70.7256012 43.12442017 C70.49099182 43.82744263 70.25638245 44.53046509 70.0146637 45.25479126 C68.25195843 50.57984236 66.61842504 55.9396036 65.05763245 61.32754517 C64.1006012 64.12442017 64.1006012 64.12442017 62.5771637 67.15567017 C60.81897576 70.69065121 59.96207557 74.13339446 59.04200745 77.95254517 C58.27076189 80.55109866 57.3912812 82.9202565 56.3584137 85.41738892 C53.6314943 92.10920802 51.43418596 98.97493769 49.18412781 105.83721924 C44.98737161 118.6268192 40.65852003 131.34957307 36.04762268 143.99649048 C33.69867966 150.44134543 31.46967078 156.9072132 29.33106995 163.42520142 C27.86213122 167.84134419 26.33018341 172.23338474 24.7881012 176.62442017 C24.49330872 177.46432495 24.19851624 178.30422974 23.89479065 179.16958618 C23.28029796 180.91956522 22.66562942 182.66948251 22.05079651 184.41934204 C17.93757986 196.12911605 13.83879244 207.84053597 9.9455719 219.62564087 C8.34642515 224.46392006 6.7290572 229.29593343 5.1006012 234.12442017 C4.73539368 235.21279175 4.73539368 235.21279175 4.36280823 236.32315063 C-0.78616094 251.45983368 -0.78616094 251.45983368 -7.94338989 255.1895752 C-11.95578188 256.45850387 -15.63750824 256.38758194 -19.82054138 256.35147095 C-20.70884644 256.351763 -21.59715149 256.35205505 -22.51237488 256.35235596 C-25.43966034 256.35096599 -28.36668922 256.3354204 -31.29393005 256.31973267 C-33.32702495 256.31600135 -35.36012165 256.31315494 -37.39321899 256.31115723 C-42.73781826 256.30353009 -48.0823084 256.28388943 -53.42686462 256.26174927 C-58.88318913 256.24127107 -64.3395313 256.23215128 -69.79588318 256.22207642 C-80.49710293 256.20064273 -91.19824178 256.16651782 -101.8993988 256.12442017 C-99.73003839 254.48753651 -97.55405697 252.88336213 -95.32518005 251.32754517 C-92.40732164 248.67750951 -91.47737045 246.55433909 -90.0868988 242.87442017 C-89.72132874 241.91463257 -89.72132874 241.91463257 -89.34837341 240.93545532 C-85.927775 231.78335965 -82.94009519 222.46844081 -79.90184021 213.18447876 C-78.33096166 208.38920557 -76.74129773 203.60024762 -75.1493988 198.81192017 C-74.88006531 197.99578247 -74.61073181 197.17964478 -74.33323669 196.33877563 C-72.61531815 191.16228363 -70.78831382 186.03355542 -68.9125824 180.91226196 C-67.25592484 176.35385891 -65.67299373 171.77025338 -64.0868988 167.18692017 C-63.37615925 165.13737234 -62.66521871 163.08789421 -61.9540863 161.03848267 C-61.6044281 160.03075806 -61.2547699 159.02303345 -60.89451599 157.98477173 C-60.02857665 155.49572725 -59.15764898 153.00857344 -58.2822113 150.52285767 C-53.66680599 137.4160308 -49.17515835 124.26748348 -44.69358826 111.1144104 C-42.08764596 103.47333764 -39.45805892 95.84244998 -36.7587738 88.23379517 C-34.32436704 81.37059792 -31.98707102 74.47973589 -29.7118988 67.56192017 C-29.05322819 65.56012864 -28.39310207 63.55881537 -27.73143005 61.55801392 C-27.45017273 60.70264038 -27.16891541 59.84726685 -26.87913513 58.9659729 C-26.12862892 56.78926175 -25.33376242 54.62780095 -24.51976013 52.47402954 C-22.60082252 47.39107177 -20.87589174 42.24535918 -19.1415863 37.09707642 C-18.42683621 34.98571658 -17.71198971 32.87438939 -16.99705505 30.76309204 C-15.87883646 27.45611991 -14.76155559 24.14883789 -13.64598083 20.8409729 C-12.56376218 17.63379497 -11.47793487 14.42785737 -10.3915863 11.22207642 C-10.05617828 10.22426651 -9.72077026 9.2264566 -9.37519836 8.19841003 C-8.90933823 6.82579262 -8.90933823 6.82579262 -8.43406677 5.42544556 C-8.16109772 4.61684586 -7.88812866 3.80824615 -7.60688782 2.97514343 C-6.13054786 -0.88682 -3.80161959 0.00681294 0 0 Z " fill="#FDFEFE" transform="translate(403.89939880371094,132.87557983398438)"/>
<path d="M0 0 C0.83939117 -0.00043808 1.67878235 -0.00087616 2.54360962 -0.00132751 C5.31414159 0.00076013 8.08406612 0.02408997 10.85449219 0.04760742 C12.77691314 0.05320346 14.69933837 0.05747352 16.62176514 0.06047058 C21.67874995 0.07191871 26.73547581 0.1013857 31.7923584 0.13458252 C36.95365903 0.16528404 42.11500154 0.1789761 47.27636719 0.1940918 C57.40148089 0.22625535 67.5264025 0.2774514 77.65136719 0.34057617 C76.47815918 1.26640503 76.47815918 1.26640503 75.28125 2.2109375 C69.05804185 7.25039579 67.23345738 12.7244318 64.90136719 20.15307617 C64.20380581 22.31204516 63.50587838 24.47089591 62.80761719 26.62963867 C62.27587891 28.2910791 62.27587891 28.2910791 61.73339844 29.98608398 C60.33659791 34.31641776 58.88940156 38.6289621 57.43920898 42.94165039 C54.75851334 50.91374032 52.13580951 58.89222767 49.70996094 66.94604492 C47.99109825 72.45782233 46.13738069 77.92490888 44.2878418 83.39404297 C42.70464723 88.09662346 41.19011192 92.81231535 39.74511719 97.55932617 C37.31667155 105.5090933 34.65946396 113.38008317 32.00585938 121.2565918 C28.19167402 132.58917895 24.46642734 143.93475446 21.45996094 155.51245117 C20.31989016 159.4999451 18.97858039 163.41194195 17.65136719 167.34057617 C10.67428849 188.14741355 3.78250851 208.98125381 -3.03613281 229.84057617 C-3.3935556 230.93249268 -3.75097839 232.02440918 -4.11923218 233.14941406 C-5.1386428 236.26471836 -6.15608398 239.38065838 -7.17285156 242.49682617 C-7.47960815 243.43381348 -7.78636475 244.37080078 -8.10241699 245.33618164 C-8.38435913 246.20194824 -8.66630127 247.06771484 -8.95678711 247.9597168 C-9.20261032 248.71273071 -9.44843353 249.46574463 -9.70170593 250.24157715 C-10.3219434 252.25398054 -10.83789736 254.29763437 -11.34863281 256.34057617 C-39.39863281 256.34057617 -67.44863281 256.34057617 -96.34863281 256.34057617 C-95.22407141 247.34408494 -95.22407141 247.34408494 -94.07128906 244.02026367 C-93.81009277 243.25294922 -93.54889648 242.48563477 -93.27978516 241.69506836 C-92.84980225 240.46771973 -92.84980225 240.46771973 -92.41113281 239.21557617 C-91.77927001 237.3641339 -91.14778277 235.51256342 -90.51660156 233.66088867 C-90.17161621 232.65703125 -89.82663086 231.65317383 -89.47119141 230.61889648 C-87.35971176 224.45253096 -85.29014085 218.27212478 -83.22363281 212.09057617 C-83.00648621 211.44190582 -82.7893396 210.79323547 -82.56561279 210.12490845 C-79.69929772 201.55235187 -76.97425563 192.96061054 -74.50195312 184.26611328 C-73.47914631 180.73158442 -72.33993075 177.24719095 -71.15722656 173.76245117 C-69.05583074 167.519006 -67.02709451 161.25430534 -65.02832031 154.97729492 C-64.57950752 153.56829422 -64.57950752 153.56829422 -64.12162781 152.13082886 C-63.48737706 150.13891012 -62.85327189 148.14694503 -62.21929932 146.15493774 C-54.9405109 123.29611535 -47.5098616 100.4888949 -40.02514648 77.69677734 C-39.23579737 75.29290131 -38.44648986 72.88901163 -37.65722656 70.48510742 C-37.27878098 69.3324791 -36.90033539 68.17985077 -36.51042175 66.99229431 C-33.6954511 58.41250326 -30.90624294 49.82474686 -28.14334106 41.22805786 C-27.55389552 39.39579082 -26.96192333 37.5643372 -26.36987305 35.73291016 C-24.75056754 30.72251116 -23.14866961 25.70880055 -21.59863281 20.67651367 C-21.07780284 19.02286678 -20.55696979 17.36922086 -20.03613281 15.71557617 C-19.72615356 14.66563477 -19.72615356 14.66563477 -19.40991211 13.59448242 C-17.95500883 9.03535991 -15.95278383 6.44854301 -12.34863281 3.34057617 C-11.53703705 2.53972847 -11.53703705 2.53972847 -10.70904541 1.72270203 C-7.25173261 -0.30170736 -3.89242837 -0.05315776 0 0 Z " fill="#FDFEFE" transform="translate(219.3486328125,210.659423828125)"/>
<path d="M0 0 C5.24247532 3.53916791 7.18986029 6.78424948 8.9375 12.875 C9.17637939 13.64513428 9.41525879 14.41526855 9.66137695 15.20874023 C10.46026967 17.80033284 11.22963758 20.39979481 12 23 C12.60745368 24.99407589 13.21689021 26.98754862 13.828125 28.98046875 C15.30086838 33.78787737 16.75234928 38.60130321 18.19287109 43.41845703 C19.17602726 46.56301035 20.29205344 49.65181677 21.46020508 52.73217773 C23.01852012 59.27907437 21.42830226 64.74550445 19.3671875 70.9140625 C19.09481766 71.75754745 18.82244781 72.60103241 18.54182434 73.47007751 C17.96130382 75.26484187 17.37631417 77.05816591 16.78720093 78.85012817 C15.25889888 83.49915031 13.76195892 88.15826883 12.26171875 92.81640625 C11.82358604 94.17236153 11.82358604 94.17236153 11.37660217 95.55570984 C9.34702361 101.85628645 7.43909525 108.17853304 5.6875 114.5625 C3.59465691 122.10084495 1.2967394 129.56057192 -1.125 137 C-1.45024658 138.02295166 -1.77549316 139.04590332 -2.1105957 140.09985352 C-4.00530012 145.82541796 -5.75882715 150.56912036 -10.75 154.3125 C-15.48278318 155.75862819 -19.4151772 155.8284301 -23.75 153.5625 C-28.6594336 147.97120062 -30.68870835 140.33810917 -32.8125 133.3125 C-33.32216432 131.65471643 -33.83261507 129.99717449 -34.34375 128.33984375 C-34.60929687 127.47601074 -34.87484375 126.61217773 -35.1484375 125.72216797 C-36.04090266 122.8692475 -36.96905066 120.02992986 -37.90625 117.19140625 C-38.22360107 116.22227295 -38.54095215 115.25313965 -38.86791992 114.25463867 C-39.48146298 112.3841966 -40.10107814 110.51573145 -40.7277832 108.6496582 C-43.68166561 99.56851701 -44.92746991 92.77878303 -41.4375 83.75 C-40.86553322 82.16168331 -40.29799013 80.57176818 -39.734375 78.98046875 C-39.44240234 78.1611084 -39.15042969 77.34174805 -38.84960938 76.49755859 C-37.45593276 72.40062992 -36.33125396 68.23470685 -35.1875 64.0625 C-32.55497252 54.59018909 -29.49903491 45.28537984 -26.31933594 35.98364258 C-24.22067782 29.81098869 -22.32057927 23.64363435 -20.64135742 17.34472656 C-16.9467592 3.72482027 -16.9467592 3.72482027 -11.14453125 -0.19140625 C-7.23035826 -1.66724197 -3.85124185 -1.61460998 0 0 Z " fill="#FAFDFE" transform="translate(311,223)"/>
<path d="M0 0 C30.03 0 60.06 0 91 0 C90.25107424 2.99570305 89.42395057 5.83353744 88.4375 8.75 C88.16808594 9.54921875 87.89867187 10.3484375 87.62109375 11.171875 C87.41613281 11.77515625 87.21117187 12.3784375 87 13 C85.39529759 8.98824398 86.7823687 5.98286267 88 2 C76.70825931 2.06114765 65.41675098 2.13820778 54.12526226 2.23571491 C48.88243324 2.28048627 43.63968314 2.31972739 38.39672852 2.34643555 C33.33914463 2.37240113 28.28186338 2.41275538 23.22446632 2.46318626 C21.29276093 2.47990074 19.36100313 2.4913864 17.42923546 2.49761391 C14.72813388 2.50720534 12.02781463 2.53520437 9.3269043 2.56762695 C8.52417587 2.56619186 7.72144745 2.56475677 6.89439392 2.5632782 C2.64306124 2.59293288 2.64306124 2.59293288 -1.02043152 4.52702332 C-1.34368912 5.01310562 -1.66694672 5.49918793 -2 6 C-1.34 4.02 -0.68 2.04 0 0 Z " fill="#B9E8F5" transform="translate(398,133)"/>
<path d="M0 0 C0.33 0 0.66 0 1 0 C1 1.98 1 3.96 1 6 C28.06 6 55.12 6 83 6 C83 4.35 83 2.7 83 1 C83.66 1 84.32 1 85 1 C84.67 3.31 84.34 5.62 84 8 C55.95 8 27.9 8 -1 8 C-0.67 5.36 -0.34 2.72 0 0 Z " fill="#C8F0FB" transform="translate(124,459)"/>
<path d="M0 0 C28.38 0 56.76 0 86 0 C81 4 81 4 79 5 C79 4.01 79 3.02 79 2 C52.6 2 26.2 2 -1 2 C-0.67 1.34 -0.34 0.68 0 0 Z " fill="#C9F2FE" transform="translate(211,211)"/>
<path d="M0 0 C1.27350058 3.01009228 0.99687398 4.00781505 -0.25 7.125 C-2 10 -2 10 -5 12 C23.71 12 52.42 12 82 12 C78.0959485 14.602701 74.83199201 14.26578882 70.3059082 14.22705078 C69.4178952 14.22734283 68.5298822 14.22763489 67.61495972 14.22793579 C64.67680118 14.22654132 61.73889554 14.21097457 58.80078125 14.1953125 C56.76482787 14.19158279 54.72887269 14.18873562 52.69291687 14.18673706 C47.33184868 14.17909733 41.97088869 14.15944587 36.60986328 14.1373291 C31.14031437 14.11687803 25.67074799 14.10773692 20.20117188 14.09765625 C9.46740035 14.07620034 -1.26629083 14.04206025 -12 14 C-9.83927738 12.36684235 -7.67489261 10.77797544 -5.4375 9.25 C-2.32658429 6.37838549 -1.44267315 3.94836863 0 0 Z " fill="#BCF0FD" transform="translate(314,375)"/>
<path d="M0 0 C28.38 0 56.76 0 86 0 C86 0.99 86 1.98 86 3 C84.35 3 82.7 3 81 3 C81 2.67 81 2.34 81 2 C54.27 1.67 27.54 1.34 0 1 C0 0.67 0 0.34 0 0 Z " fill="#3996B9" transform="translate(214,210)"/>
<path d="M0 0 C0.99 0 1.98 0 3 0 C0.97359864 7.87332249 -1.47032764 15.52733416 -4.1875 23.1875 C-4.55552734 24.23486328 -4.92355469 25.28222656 -5.30273438 26.36132812 C-6.19841262 28.90877663 -7.09753816 31.45494852 -8 34 C-8.33 34 -8.66 34 -9 34 C-8.52013969 28.43109483 -7.70084819 23.32932432 -6 18 C-5.34 18 -4.68 18 -4 18 C-3.855625 17.13375 -3.71125 16.2675 -3.5625 15.375 C-3.04166667 12.25 -2.52083333 9.125 -2 6 C-1.34 6 -0.68 6 0 6 C0 4.02 0 2.04 0 0 Z " fill="#DFFCFE" transform="translate(255,311)"/>
<path d="M0 0 C0.66 0 1.32 0 2 0 C0.55484064 7.22579681 -1.59716221 14.04005606 -4 21 C-4.58555649 22.74925738 -5.16914483 24.49917589 -5.75 26.25 C-6.1625 27.4875 -6.575 28.725 -7 30 C-7.33 30 -7.66 30 -8 30 C-7.67 26.7 -7.34 23.4 -7 20 C-6.34 20 -5.68 20 -5 20 C-4.93941406 19.38511719 -4.87882812 18.77023437 -4.81640625 18.13671875 C-4.69072266 16.92435547 -4.69072266 16.92435547 -4.5625 15.6875 C-4.48128906 14.88699219 -4.40007812 14.08648437 -4.31640625 13.26171875 C-4 11 -4 11 -3 8 C-2.34 8 -1.68 8 -1 8 C-1.020625 7.05125 -1.04125 6.1025 -1.0625 5.125 C-1 2 -1 2 0 0 Z " fill="#D3F5FC" transform="translate(436,279)"/>
<path d="M0 0 C4.26462289 6.39693433 6.92120149 15.3233209 6 23 C5.44147826 25.39028373 4.76347444 27.66185951 4 30 C3.67 30 3.34 30 3 30 C3.10699219 29.23816406 3.21398437 28.47632813 3.32421875 27.69140625 C4.04317393 21.49911485 4.09302797 16.97251495 1.76953125 11.1796875 C0.47794309 7.52128043 0.30576892 3.85268844 0 0 Z " fill="#BCECF6" transform="translate(327,262)"/>
<path d="M0 0 C1.43088528 2.86177057 0.59991697 4.93375773 0 8 C-0.33 8 -0.66 8 -1 8 C-1.25394531 8.98742187 -1.50789062 9.97484375 -1.76953125 10.9921875 C-2.11658896 12.28661896 -2.46427821 13.58088121 -2.8125 14.875 C-3.14894531 16.15117187 -3.48539063 17.42734375 -3.83203125 18.7421875 C-5 22 -5 22 -8 24 C-3.21088435 3.21088435 -3.21088435 3.21088435 0 0 Z " fill="#C0EAF6" transform="translate(203,218)"/>
<path d="M0 0 C0.33 0 0.66 0 1 0 C1.32175432 5.36257197 0.45571974 8.29320383 -2 13 C-1.95875 13.845625 -1.9175 14.69125 -1.875 15.5625 C-2 18 -2 18 -4.5 20.8125 C-5.7375 21.8953125 -5.7375 21.8953125 -7 23 C-5.18120817 15.10479003 -2.92975651 7.55490512 0 0 Z " fill="#3A9DC0" transform="translate(434,291)"/>
<path d="M0 0 C0.66 0.99 1.32 1.98 2 3 C1.171875 5.70703125 1.171875 5.70703125 -0.25 8.8125 C-2.06351185 12.83177206 -3.6672288 16.79422672 -5 21 C-5.66 21 -6.32 21 -7 21 C-5.99877562 16.88252191 -4.75838656 12.85731396 -3.5 8.8125 C-3.27441406 8.07580078 -3.04882812 7.33910156 -2.81640625 6.58007812 C-1.11798022 1.11798022 -1.11798022 1.11798022 0 0 Z " fill="#359BBF" transform="translate(467,197)"/>
<path d="M0 0 C1.14835997 3.97576142 0.85797326 6.92462701 0 11 C-0.97383946 12.68208635 -1.97695052 14.34738161 -3 16 C-4.10937447 18.96669824 -5.07006121 21.97275244 -6 25 C-7.0386115 21.8347078 -6.97131987 20.10587254 -5.8125 17 C-5.5340625 16.22785156 -5.255625 15.45570313 -4.96875 14.66015625 C-4.6490625 13.78230469 -4.329375 12.90445312 -4 12 C-3.26532559 9.81434363 -2.5362364 7.62680261 -1.8125 5.4375 C-1.20833333 3.625 -0.60416667 1.8125 0 0 Z " fill="#48A5C5" transform="translate(251,330)"/>
<path d="M0 0 C1.37570339 4.12711018 0.09882525 6.01275016 -1.67578125 9.8359375 C-3.63032177 13.03008337 -5.71289657 14.28174139 -9 16 C-9.66 15.67 -10.32 15.34 -11 15 C-10.67 14.34 -10.34 13.68 -10 13 C-9.01 13 -8.02 13 -7 13 C-7 12.34 -7 11.68 -7 11 C-6.01 11 -5.02 11 -4 11 C-3.896875 10.484375 -3.79375 9.96875 -3.6875 9.4375 C-2.75736134 6.13973565 -1.38604488 3.13366668 0 0 Z " fill="#CDF3F9" transform="translate(307,362)"/>
<path d="M0 0 C1.57722178 5.65816102 0.60949991 11.78711995 -2.02734375 17.05078125 C-3.125 18.6875 -3.125 18.6875 -5 21 C-6.33201473 18.33597054 -5.69751146 17.4413616 -4.78515625 14.6484375 C-4.51123047 13.79765625 -4.23730469 12.946875 -3.95507812 12.0703125 C-3.66052734 11.18085938 -3.36597656 10.29140625 -3.0625 9.375 C-2.77181641 8.4778125 -2.48113281 7.580625 -2.18164062 6.65625 C-1.46100166 4.43526435 -0.73354395 2.21675021 0 0 Z " fill="#BBE9F4" transform="translate(164,335)"/>
<path d="M0 0 C1.60728272 4.0182068 0.27930357 7.01994445 -1 11 C-1.144375 11.78375 -1.28875 12.5675 -1.4375 13.375 C-1.623125 13.91125 -1.80875 14.4475 -2 15 C-2.99 15.33 -3.98 15.66 -5 16 C-4.54548816 14.26982492 -4.08621143 12.54090123 -3.625 10.8125 C-3.36976563 9.84957031 -3.11453125 8.88664062 -2.8515625 7.89453125 C-2.05233704 5.17789793 -1.0968638 2.60862825 0 0 Z " fill="#BEE9F3" transform="translate(325,343)"/>
<path d="M0 0 C1.0512371 3.26715415 0.95244044 5.64159255 0.3125 9 C0.16425781 9.845625 0.01601562 10.69125 -0.13671875 11.5625 C-1.17937193 14.50646192 -2.67838952 15.95736105 -5 18 C-4.35702496 15.37426939 -3.71075589 12.74942697 -3.0625 10.125 C-2.88009766 9.37863281 -2.69769531 8.63226563 -2.50976562 7.86328125 C-1.11328125 2.2265625 -1.11328125 2.2265625 0 0 Z " fill="#C2EBF6" transform="translate(154,367)"/>
<path d="M0 0 C0.33 0 0.66 0 1 0 C1 1.98 1 3.96 1 6 C0.34 6 -0.32 6 -1 6 C-0.6596875 7.3303125 -0.6596875 7.3303125 -0.3125 8.6875 C0.05541631 12.5874129 -0.59759022 13.97474324 -3 17 C-3.66 17 -4.32 17 -5 17 C-4.54619105 15.10307857 -4.08675008 13.20750405 -3.625 11.3125 C-3.36976563 10.25675781 -3.11453125 9.20101563 -2.8515625 8.11328125 C-2.08094511 5.29593234 -1.14501457 2.68331675 0 0 Z " fill="#379BBF" transform="translate(240,365)"/>
<path d="M0 0 C1.02328619 3.19411474 0.96256253 5.4215884 0.25 8.6875 C0.09015625 9.47511719 -0.0696875 10.26273437 -0.234375 11.07421875 C-0.61335938 12.02748047 -0.61335938 12.02748047 -1 13 C-1.99 13.33 -2.98 13.66 -4 14 C-3.52372025 12.04096255 -3.04388577 10.08278903 -2.5625 8.125 C-2.29566406 7.03445313 -2.02882813 5.94390625 -1.75390625 4.8203125 C-1 2 -1 2 0 0 Z " fill="#C6EEF7" transform="translate(351,268)"/>
<path d="M0 0 C0.66 0 1.32 0 2 0 C0.07289294 10.55808656 0.07289294 10.55808656 -2 15 C-2.33 15 -2.66 15 -3 15 C-2.67 12.03 -2.34 9.06 -2 6 C-1.34 6 -0.68 6 0 6 C0 4.02 0 2.04 0 0 Z " fill="#C6F0F8" transform="translate(445,253)"/>
<path d="M0 0 C0.99 0 1.98 0 3 0 C2.54857225 1.77260631 2.08859477 3.5430368 1.625 5.3125 C1.24214844 6.79169922 1.24214844 6.79169922 0.8515625 8.30078125 C0 11 0 11 -2 14 C-2 11.36 -2 8.72 -2 6 C-1.34 6 -0.68 6 0 6 C0 4.02 0 2.04 0 0 Z " fill="#CAF0F8" transform="translate(255,311)"/>
<path d="M0 0 C5.61 0 11.22 0 17 0 C17 0.99 17 1.98 17 3 C15.35 3 13.7 3 12 3 C12 2.67 12 2.34 12 2 C8.04 1.67 4.08 1.34 0 1 C0 0.67 0 0.34 0 0 Z " fill="#369CC4" transform="translate(283,210)"/>
<path d="M0 0 C0.99352844 3.09097736 0.96367132 4.91625179 0 8 C-0.12375 8.721875 -0.2475 9.44375 -0.375 10.1875 C-0.58125 10.785625 -0.7875 11.38375 -1 12 C-1.99 12.33 -2.98 12.66 -4 13 C-3.52140759 11.39566191 -3.04210442 9.79153584 -2.5625 8.1875 C-2.29566406 7.29417969 -2.02882813 6.40085937 -1.75390625 5.48046875 C-1.19612127 3.64526945 -0.60655425 1.81966274 0 0 Z " fill="#3499BD" transform="translate(410,361)"/>
<path d="M0 0 C0.33 0 0.66 0 1 0 C1.27429625 5.39449293 1.36055646 8.51925805 -2 13 C-3.45047396 10.09905209 -2.45356803 8.44027404 -1.5625 5.375 C-1.27503906 4.37210937 -0.98757813 3.36921875 -0.69140625 2.3359375 C-0.46324219 1.56507813 -0.23507812 0.79421875 0 0 Z " fill="#C6EDF6" transform="translate(284,260)"/>
<path d="M0 0 C0.66 0.33 1.32 0.66 2 1 C0.71937515 2.7074998 -0.61767557 4.37373596 -2 6 C-2.66 6 -3.32 6 -4 6 C-4.33 7.32 -4.66 8.64 -5 10 C-5.33 9.01 -5.66 8.02 -6 7 C-4.78515625 5.17578125 -4.78515625 5.17578125 -3.0625 3.3125 C-2.49660156 2.68988281 -1.93070312 2.06726563 -1.34765625 1.42578125 C-0.90292969 0.95527344 -0.45820313 0.48476562 0 0 Z " fill="#349ABF" transform="translate(293,213)"/>
<path d="M0 0 C0.33 0 0.66 0 1 0 C1.25 7.625 1.25 7.625 -1 11 C-1.66 11 -2.32 11 -3 11 C-2.01 7.37 -1.02 3.74 0 0 Z " fill="#45A3C6" transform="translate(312,349)"/>
<path d="M0 0 C0.33 0 0.66 0 1 0 C1.390625 5.859375 1.390625 5.859375 1 8 C-0.32 9.32 -1.64 10.64 -3 12 C-2.01 8.04 -1.02 4.08 0 0 Z " fill="#47A4C5" transform="translate(324,310)"/>
<path d="M0 0 C1.1875 1.5 1.1875 1.5 2 4 C1.27101296 6.78824238 0.1843275 9.37665092 -1 12 C-1.33 12 -1.66 12 -2 12 C-2.21278058 7.53160785 -1.59138085 4.17737474 0 0 Z " fill="#C3EDF6" transform="translate(426,308)"/>
<path d="M0 0 C0.66 0.99 1.32 1.98 2 3 C0.6975667 5.90542812 -0.70886268 7.8092961 -3 10 C-2.69201674 8.51988629 -2.378482 7.04092675 -2.0625 5.5625 C-1.88847656 4.73878906 -1.71445312 3.91507812 -1.53515625 3.06640625 C-1 1 -1 1 0 0 Z " fill="#2C95BC" transform="translate(430,304)"/>
<path d="M0 0 C0.33 0 0.66 0 1 0 C1.390625 5.95703125 1.390625 5.95703125 1 8 C-0.32 8.99 -1.64 9.98 -3 11 C-2.01 7.37 -1.02 3.74 0 0 Z " fill="#C0EAF5" transform="translate(182,280)"/>
<path d="M0 0 C1.13643966 3.40931897 0.86747764 4.00335456 -0.4375 7.1875 C-0.86869141 8.26064453 -0.86869141 8.26064453 -1.30859375 9.35546875 C-1.53675781 9.89816406 -1.76492188 10.44085938 -2 11 C-2.33 11 -2.66 11 -3 11 C-3 8.69 -3 6.38 -3 4 C-2.34 4 -1.68 4 -1 4 C-0.67 2.68 -0.34 1.36 0 0 Z " fill="#3298BE" transform="translate(380,181)"/>
<path d="M0 0 C0.66 0 1.32 0 2 0 C1.71640113 1.4391134 1.42278601 2.87625518 1.125 4.3125 C0.88136719 5.51326172 0.88136719 5.51326172 0.6328125 6.73828125 C0 9 0 9 -2 12 C-2.17835515 7.45194365 -1.99785435 4.1205746 0 0 Z " fill="#2794BA" transform="translate(395,134)"/>
<path d="M0 0 C0.33 0 0.66 0 1 0 C1.25 6.625 1.25 6.625 -1 10 C-1.66 10 -2.32 10 -3 10 C-2.01 6.7 -1.02 3.4 0 0 Z " fill="#C2EAF5" transform="translate(364,230)"/>
<path d="M0 0 C0.33 0 0.66 0 1 0 C1.25 3.25 1.25 3.25 1 7 C-0.32 8.32 -1.64 9.64 -3 11 C-2.01 7.37 -1.02 3.74 0 0 Z " fill="#4EABC8" transform="translate(228,401)"/>
<path d="M0 0 C0.33 0 0.66 0 1 0 C1.25 3.25 1.25 3.25 1 7 C-0.32 8.32 -1.64 9.64 -3 11 C-2.01 7.37 -1.02 3.74 0 0 Z " fill="#48A5C5" transform="translate(232,389)"/>
<path d="M0 0 C0.6875 1.625 0.6875 1.625 1 4 C-1.33333333 9.66666667 -1.33333333 9.66666667 -4 11 C-3.21681311 7.08406554 -1.60820142 3.63593365 0 0 Z " fill="#D0F3FA" transform="translate(314,375)"/>
<path d="M0 0 C0.33 0 0.66 0 1 0 C1 2.31 1 4.62 1 7 C0.34 7 -0.32 7 -1 7 C-1.33 7.99 -1.66 8.98 -2 10 C-3 8 -3 8 -2.44140625 6.0546875 C-2.15136719 5.33539063 -1.86132812 4.61609375 -1.5625 3.875 C-1.27503906 3.15054688 -0.98757813 2.42609375 -0.69140625 1.6796875 C-0.46324219 1.12539062 -0.23507812 0.57109375 0 0 Z " fill="#C1EBF7" transform="translate(358,248)"/>
<path d="M0 0 C0.6875 1.625 0.6875 1.625 1 4 C-0.4375 7.25 -0.4375 7.25 -2 10 C-2.33 10 -2.66 10 -3 10 C-3 8.35 -3 6.7 -3 5 C-2.34 5 -1.68 5 -1 5 C-0.67 3.35 -0.34 1.7 0 0 Z " fill="#1C90B6" transform="translate(360,237)"/>
</svg>
