<?xml version="1.0" encoding="UTF-8"?>
<svg version="1.1" xmlns="http://www.w3.org/2000/svg" width="250" height="250">
<path d="M0 0 C0.83903366 -0.00807175 1.67806732 -0.01614349 2.54252625 -0.02445984 C4.31845062 -0.03824965 6.09440094 -0.04899447 7.87036133 -0.05688477 C9.65332024 -0.06831502 11.43624742 -0.0886217 13.21899414 -0.1184082 C29.82749496 -0.39513925 44.25662156 1.9834984 59.63671875 8.55078125 C60.57443115 8.94467041 61.51214355 9.33855957 62.47827148 9.74438477 C69.21298916 12.63923989 75.3695187 15.84692461 81.26171875 20.23828125 C82.2671875 20.95242187 83.27265625 21.6665625 84.30859375 22.40234375 C109.26130928 40.4915557 127.05386154 66.14231607 134.26171875 96.23828125 C134.44500732 96.99834473 134.6282959 97.7584082 134.81713867 98.54150391 C136.64449576 107.17264158 136.70274117 115.8317858 136.69921875 124.61328125 C136.7003215 125.80781921 136.7003215 125.80781921 136.70144653 127.02648926 C136.65436388 146.46357461 132.78245514 162.77970949 124.26171875 180.23828125 C123.66423828 181.58212891 123.66423828 181.58212891 123.0546875 182.953125 C117.66188629 194.71057499 109.13013201 204.95075584 100.26171875 214.23828125 C99.43994141 215.15480469 99.43994141 215.15480469 98.6015625 216.08984375 C94.95746761 220.01149869 90.87440627 223.10665339 86.51171875 226.17578125 C85.94420898 226.57804932 85.37669922 226.98031738 84.79199219 227.39477539 C80.63233517 230.23828125 80.63233517 230.23828125 77.26171875 230.23828125 C76.77960938 229.1296875 76.2975 228.02109375 75.80078125 226.87890625 C75.16281653 225.41534012 74.52479259 223.95179981 73.88671875 222.48828125 C73.56960937 221.75867188 73.2525 221.0290625 72.92578125 220.27734375 C72.61640625 219.56835938 72.30703125 218.859375 71.98828125 218.12890625 C71.70549316 217.47954102 71.42270508 216.83017578 71.13134766 216.16113281 C70.5172312 214.80324925 69.85261415 213.46767171 69.15380859 212.15136719 C68.26171875 210.23828125 68.26171875 210.23828125 68.26171875 207.73828125 C69.45504417 204.7549677 70.91638321 204.09762723 73.54541016 202.41699219 C93.5798897 188.657893 104.46980985 164.56258559 108.89355469 141.42773438 C113.43637134 114.4118327 106.18222732 87.05134834 90.40844727 64.83203125 C90.03002686 64.30609375 89.65160645 63.78015625 89.26171875 63.23828125 C84.98618858 72.75934872 81.76413924 82.53210997 78.58807373 92.4604187 C77.05369593 97.25567857 75.50201922 102.04535115 73.953125 106.8359375 C73.64088989 107.80322281 73.32865479 108.77050812 73.00695801 109.7671051 C70.10316143 118.75447669 67.13313642 127.71892804 64.13671875 136.67578125 C63.89605682 137.39572266 63.6553949 138.11566406 63.40744019 138.85742188 C62.19406679 142.48711484 60.97967311 146.11646497 59.76464844 149.74560547 C57.35202296 156.9542825 54.95071265 164.16673614 52.5479126 171.37869263 C51.31747011 175.07159622 50.08645687 178.76430951 48.85546875 182.45703125 C48.41145532 183.7890615 47.96744482 185.12109272 47.5234375 186.453125 C45.76953125 191.71484375 44.015625 196.9765625 42.26171875 202.23828125 C39.26171875 201.23828125 39.26171875 201.23828125 37.54760742 198.20996094 C36.91428866 196.86500291 36.2924495 195.51460355 35.6796875 194.16015625 C35.34302567 193.43773743 35.00636383 192.7153186 34.65950012 191.9710083 C33.57962463 189.64782091 32.51428889 187.31828774 31.44921875 184.98828125 C30.74378629 183.46440466 30.03741584 181.94096191 29.33007812 180.41796875 C27.29546957 176.03013762 25.27751382 171.63477886 23.26171875 167.23828125 C19.38110096 158.79389104 15.45522631 150.3739706 11.44921875 141.98828125 C10.96001953 140.95832031 10.47082031 139.92835938 9.96679688 138.8671875 C9.50080078 137.89136719 9.03480469 136.91554687 8.5546875 135.91015625 C8.13727295 135.03456055 7.7198584 134.15896484 7.28979492 133.25683594 C6.42171366 131.29521703 6.42171366 131.29521703 5.26171875 130.23828125 C3.23776887 134.57016406 1.2171769 138.90360444 -0.80078125 143.23828125 C-1.09962219 143.88009338 -1.39846313 144.52190552 -1.70635986 145.1831665 C-5.09089492 152.45803467 -8.44980298 159.73881535 -11.61328125 167.11328125 C-14.71216086 174.30516726 -18.15893452 181.27541831 -21.73828125 188.23828125 C-22.39828125 188.23828125 -23.05828125 188.23828125 -23.73828125 188.23828125 C-24.28899292 186.9529248 -24.28899292 186.9529248 -24.85083008 185.64160156 C-27.88968318 178.54981435 -30.93072798 171.45898013 -33.97583008 164.36987305 C-34.9741315 162.04162368 -35.96991766 159.71229475 -36.96362305 157.38208008 C-39.60036014 151.19930683 -42.26541631 145.03259176 -44.99609375 138.890625 C-45.50954346 137.71983398 -46.02299316 136.54904297 -46.55200195 135.34277344 C-47.52924455 133.11480678 -48.51938738 130.89244068 -49.52416992 128.67675781 C-53.6504391 119.19020921 -53.6504391 119.19020921 -51.73828125 113.23828125 C-50.19309539 109.51682844 -48.46857432 105.90856153 -46.67578125 102.30078125 C-46.20333984 101.33076172 -45.73089844 100.36074219 -45.24414062 99.36132812 C-44.08407979 96.98261752 -42.9153277 94.60862026 -41.73828125 92.23828125 C-40.74828125 92.23828125 -39.75828125 92.23828125 -38.73828125 92.23828125 C-36.95824639 96.32682285 -35.18017768 100.41621249 -33.40380859 104.50634766 C-32.80113848 105.89329247 -32.19796172 107.28001726 -31.59423828 108.66650391 C-28.44365367 115.9029213 -25.31136503 123.13566408 -22.47363281 130.50244141 C-21.86851058 132.2331424 -21.86851058 132.2331424 -20.73828125 133.23828125 C-20.28839844 132.16835937 -19.83851562 131.0984375 -19.375 129.99609375 C-18.72527569 128.45181649 -18.07553456 126.90754631 -17.42578125 125.36328125 C-17.07475342 124.52845215 -16.72372559 123.69362305 -16.36206055 122.83349609 C-14.22955013 117.76608084 -12.08702114 112.70309581 -9.93359375 107.64453125 C-9.45575439 106.52030762 -8.97791504 105.39608398 -8.4855957 104.23779297 C-7.55364032 102.04594554 -6.61998074 99.85482166 -5.68432617 97.66455078 C-2.90283099 91.11715874 -0.3277318 84.53499931 2.06176758 77.83349609 C3.26171875 75.23828125 3.26171875 75.23828125 6.26171875 73.23828125 C19.61472698 99.54088356 19.61472698 99.54088356 25.10522461 112.30175781 C28.09430509 119.16214165 31.65829789 125.68574156 35.26171875 132.23828125 C35.53209961 131.27680176 35.80248047 130.31532227 36.08105469 129.32470703 C37.39020967 124.67059802 38.70082468 120.01690068 40.01171875 115.36328125 C40.2538208 114.50358734 40.49592285 113.64389343 40.74536133 112.75814819 C43.66177246 102.40553391 46.59365897 92.05758045 49.55859375 81.71875 C49.82758484 80.78023193 50.09657593 79.84171387 50.37371826 78.87475586 C51.67574212 74.33318321 52.98015661 69.79231678 54.28808594 65.25244141 C56.76978888 56.61658626 59.18188904 47.98212231 61.26171875 39.23828125 C36.33024383 25.56566127 10.77560003 24.1137446 -16.73828125 29.23828125 C-25.36926075 13.67791679 -25.36926075 13.67791679 -27.73828125 5.23828125 C-25.6981837 4.58750829 -23.65612456 3.94288301 -21.61328125 3.30078125 C-20.47632813 2.94113281 -19.339375 2.58148438 -18.16796875 2.2109375 C-12.07033958 0.48165542 -6.29370242 0.05880092 0 0 Z " fill="#1AD9C4" transform="translate(113.73828125,-0.23828125)"/>
<path d="M0 0 C1.16674805 1.90185547 1.16674805 1.90185547 2.26171875 4.3671875 C2.65810547 5.25277344 3.05449219 6.13835938 3.46289062 7.05078125 C3.86701172 7.98277344 4.27113281 8.91476563 4.6875 9.875 C5.31108398 11.26138672 5.31108398 11.26138672 5.94726562 12.67578125 C9 19.58328202 9 19.58328202 9 23 C6.9453125 24.54296875 6.9453125 24.54296875 4.125 26.1875 C-8.59883669 33.96227056 -18.97623514 43.41129234 -27 56 C-27.66128906 57.01707031 -28.32257812 58.03414062 -29.00390625 59.08203125 C-43.15359016 82.14574753 -46.2089753 109.27564506 -40.1875 135.37890625 C-35.75524434 153.19845699 -26.97192611 168.16565492 -14 181 C-13.14792969 181.86625 -12.29585937 182.7325 -11.41796875 183.625 C-1.34815654 193.51586563 11.47028468 201.02276085 25 205 C26.72089844 205.556875 26.72089844 205.556875 28.4765625 206.125 C48.16584944 211.97505974 69.62974573 210.43970894 89.0625 204.45898438 C91 204 91 204 95 204 C95.55429688 205.19238281 96.10859375 206.38476562 96.6796875 207.61328125 C97.41133032 209.1797473 98.14310821 210.74615026 98.875 212.3125 C99.23980469 213.09818359 99.60460937 213.88386719 99.98046875 214.69335938 C100.33496094 215.45068359 100.68945312 216.20800781 101.0546875 216.98828125 C101.37937012 217.68477783 101.70405273 218.38127441 102.03857422 219.09887695 C103.07423509 221.240819 103.07423509 221.240819 105 224 C105 224.99 105 225.98 105 227 C101.73357749 228.1380851 98.46116013 229.25792166 95.1875 230.375 C94.27806641 230.69210938 93.36863281 231.00921875 92.43164062 231.3359375 C80.42561623 235.40865249 69.02738435 236.40911893 56.4375 236.375 C55.68366028 236.37445618 54.92982056 236.37391235 54.15313721 236.37335205 C42.68517103 236.335297 31.93289308 235.67976985 21 232 C20.33484375 231.78569336 19.6696875 231.57138672 18.984375 231.35058594 C-1.13605323 224.75577 -17.57017091 214.53762809 -33 200 C-33.67546875 199.38898438 -34.3509375 198.77796875 -35.046875 198.1484375 C-50.93344238 183.21506417 -61.46912528 161.85431372 -67 141 C-67.19287598 140.3196167 -67.38575195 139.6392334 -67.58447266 138.93823242 C-69.57745534 130.78617013 -69.37214644 122.43009827 -69.37060547 114.08959961 C-69.37495069 111.46726103 -69.41127888 108.8466485 -69.44921875 106.22460938 C-69.66959634 73.05602432 -54.56488888 43.00662113 -31.72265625 19.5546875 C-26.03326999 13.95723569 -19.64584829 9.38557551 -13 5 C-11.989375 4.32582031 -10.97875 3.65164062 -9.9375 2.95703125 C-3.46410705 -1.15470235 -3.46410705 -1.15470235 0 0 Z " fill="#1AD9C4" transform="translate(69,14)"/>
</svg>
